<svg xmlns="http://www.w3.org/2000/svg" xmlns:xlink="http://www.w3.org/1999/xlink" viewBox="0,0,256,256" width="50px" height="50px" fill-rule="nonzero"><g fill="#ffffff" fill-rule="nonzero" stroke="none" stroke-width="1" stroke-linecap="butt" stroke-linejoin="miter" stroke-miterlimit="10" stroke-dasharray="" stroke-dashoffset="0" font-family="none" font-weight="none" font-size="none" text-anchor="none" style="mix-blend-mode: normal"><g transform="scale(5.12,5.12)"><path d="M25,4l-21,13.34375v15.30859l21,13.34766l21,-13.34375v-15.3125zM25,29.18359l-5.93359,-4.11328l5.93359,-4.04687l5.93359,4.04688zM27,17.60547v-7.65625l13.42969,8.53516l-6.01953,4.17188zM23,17.60547l-7.41016,5.05078l-6.01953,-4.17187l13.42969,-8.53516zM12.09375,25.04297l-4.09375,2.78906v-5.62891zM15.57031,27.45313l7.42969,5.15234v7.44531l-13.41016,-8.52344zM27,32.60547l7.42969,-5.15234l5.98047,4.07422l-13.41016,8.52344zM37.90625,25.04297l4.09375,-2.83984v5.62891z"></path></g></g></svg>