<svg width="68" height="68" viewBox="0 0 68 68" fill="none" xmlns="http://www.w3.org/2000/svg">
<path d="M36.3374 34C36.3374 28.5218 40.6682 24.0848 46.0062 24.0848C51.3484 24.0848 55.6749 28.5175 55.6749 34C55.6749 39.4783 51.3484 43.9153 46.0062 43.9153C40.6724 43.9153 36.3374 39.4825 36.3374 34Z" fill="#1ABCFE"/>
<path d="M17 53.8348C17 48.3565 21.3308 43.9153 26.6688 43.9153H36.3375V53.8348C36.3375 59.3088 32.0068 63.75 26.6688 63.75C21.3308 63.75 17 59.3088 17 53.8348Z" fill="#0ACF83"/>
<path d="M36.3374 4.25V24.0847H46.0062C51.3484 24.0847 55.6749 19.6435 55.6749 14.1652C55.6749 8.69125 51.3484 4.25 46.0062 4.25H36.3374Z" fill="#FF7262"/>
<path d="M17 14.1652C17 19.6435 21.3308 24.0847 26.6688 24.0847H36.3375V4.25H26.6688C21.3308 4.25 17 8.69125 17 14.1652Z" fill="#F24E1E"/>
<path d="M17 34C17 39.4783 21.3308 43.9153 26.6688 43.9153H36.3375V24.0848H26.6688C21.3308 24.0848 17 28.5175 17 34Z" fill="#A259FF"/>
</svg>
