<svg width="64" height="64" viewBox="0 0 64 64" fill="none" xmlns="http://www.w3.org/2000/svg">
<g clip-path="url(#clip0_696_169)">
<path d="M32 5.33332C25.6497 5.30937 19.4993 7.55239 14.6554 11.6588C9.81144 15.7653 6.59194 21.4655 5.57612 27.7341C4.56029 34.0026 5.81483 40.4279 9.11402 45.854C12.4132 51.28 17.5405 55.3506 23.5733 57.3333C24.9066 57.5466 25.3333 56.72 25.3333 56V51.4933C17.9466 53.0933 16.3733 48 16.3733 48C15.8753 46.3438 14.7957 44.9233 13.3333 44C10.9066 42.3467 13.52 42.4 13.52 42.4C14.357 42.5083 15.1588 42.8044 15.8653 43.2661C16.5718 43.7279 17.1648 44.3434 17.6 45.0667C18.3407 46.3838 19.5715 47.3552 21.0247 47.7697C22.4778 48.1841 24.0359 48.0082 25.36 47.28C25.4815 45.9281 26.0765 44.6626 27.04 43.7067C21.3333 43.12 14.9866 40.8267 14.9866 30.6667C14.9095 28.0039 15.865 25.4144 17.6533 23.44C16.8414 21.1451 16.9368 18.6268 17.92 16.4C17.92 16.4 20.16 15.68 25.2533 19.0667C29.6202 17.8927 34.2197 17.8927 38.5866 19.0667C43.68 15.6267 45.92 16.4 45.92 16.4C46.9031 18.6268 46.9985 21.1451 46.1866 23.44C47.9749 25.4144 48.9304 28.0039 48.8533 30.6667C48.8533 40.8533 42.6133 43.0933 36.6666 43.76C37.3071 44.4037 37.8026 45.1769 38.1199 46.0278C38.4372 46.8786 38.5691 47.7874 38.5066 48.6933V56C38.5066 56.72 38.9333 57.5733 40.2933 57.3333C46.3151 55.3541 51.435 51.2944 54.7349 45.8824C58.0348 40.4703 59.2989 34.0597 58.3006 27.8001C57.3022 21.5404 54.1067 15.8411 49.2871 11.724C44.4674 7.60685 38.3387 5.34123 32 5.33332Z" fill="white"/>
</g>
<defs>
<clipPath id="clip0_696_169">
<rect width="64" height="64" fill="white"/>
</clipPath>
</defs>
</svg>
