<svg width="46" height="46" viewBox="0 0 46 46" fill="none" xmlns="http://www.w3.org/2000/svg">
<g clip-path="url(#clip0_696_203)">
<path d="M23 46C10.2974 46 0 35.7026 0 23C0 10.2974 10.2974 0 23 0C35.7026 0 46 10.2974 46 23C46 35.7026 35.7026 46 23 46ZM37.5794 32.8828H33.3867C32.9046 34.9055 32.2794 36.7652 31.537 38.4095C32.9553 37.621 34.2727 36.6308 35.4517 35.4517C36.2486 34.6548 36.9588 33.7944 37.5794 32.8828ZM40.6094 23C40.6094 21.463 40.4125 19.9564 40.0331 18.5078H34.2801C34.4239 19.9608 34.5 21.4625 34.5 23C34.5 24.5375 34.4239 26.0392 34.2801 27.4922H40.0331C40.4125 26.0436 40.6094 24.537 40.6094 23ZM23 5.39062C22.5328 5.39062 21.109 6.30892 19.6898 9.14726C19.1019 10.323 18.5975 11.6623 18.1847 13.1172H27.8152C27.4024 11.6624 26.898 10.323 26.3101 9.14726C24.891 6.30892 23.4672 5.39062 23 5.39062ZM17.1434 18.5078C16.9774 19.9675 16.8906 21.4753 16.8906 23C16.8906 24.5247 16.9774 26.0325 17.1434 27.4922H28.8566C29.0226 26.0325 29.1094 24.5247 29.1094 23C29.1094 21.4753 29.0226 19.9675 28.8566 18.5078H17.1434ZM5.39062 23C5.39062 24.537 5.58747 26.0436 5.96688 27.4922H11.7199C11.5761 26.0392 11.5 24.5375 11.5 23C11.5 21.4625 11.5761 19.9608 11.7199 18.5078H5.96688C5.58747 19.9564 5.39062 21.463 5.39062 23ZM23 40.6094C23.4672 40.6094 24.891 39.6911 26.3102 36.8527C26.8981 35.677 27.4025 34.3377 27.8153 32.8828H18.1847C18.5975 34.3376 19.1019 35.677 19.6898 36.8527C21.109 39.6911 22.5328 40.6094 23 40.6094ZM14.463 38.4095C13.7205 36.7652 13.0954 34.9056 12.6133 32.8828H8.42061C9.04134 33.7944 9.75137 34.6548 10.5483 35.4517C11.7274 36.6308 13.0447 37.621 14.463 38.4095ZM8.42061 13.1172H12.6133C13.0954 11.0945 13.7206 9.23477 14.463 7.59054C13.0447 8.37901 11.7273 9.36918 10.5483 10.5483C9.75137 11.3452 9.04125 12.2056 8.42061 13.1172ZM31.537 7.59054C32.2795 9.23477 32.9046 11.0944 33.3867 13.1172H37.5794C36.9587 12.2056 36.2486 11.3452 35.4517 10.5483C34.2726 9.36918 32.9553 8.37901 31.537 7.59054Z" fill="white"/>
</g>
<defs>
<clipPath id="clip0_696_203">
<rect width="46" height="46" fill="white" transform="matrix(1 0 0 -1 0 46)"/>
</clipPath>
</defs>
</svg>
