<svg width="64" height="64" viewBox="0 0 64 64" fill="none" xmlns="http://www.w3.org/2000/svg">
<g clip-path="url(#clip0_696_200)">
<path d="M62.8 17.2C62.4 14 59.6 11.2 56.2 11C36.6 9.60001 27 9.60001 7.6 11C4.4 11.2 1.6 14 1.2 17.2C-0.4 29 -0.4 35 1.2 46.8C1.6 50 4.6 52.8 7.8 53C17.4 53.6 24.8 54 32 54C39.2 54 46.6 53.6 56.4 53C59.6 52.8 62.4 50 63 46.8C64.4 35 64.4 29 62.8 17.2Z" fill="#FF0000"/>
<path d="M42.2 35.4L30.2 43.4C29.6 43.8 28.8 44 28 44C27.4 44 26.6 43.8 26.2 43.6C24.8 42.8 24 41.6 24 40V24C24 22.4 24.8 21.2 26.2 20.4C27.6 19.6 29 19.8 30.4 20.6L42.4 28.6C43.6 29.4 44.2 30.6 44.2 32C44.2 33.4 43.4 34.6 42.2 35.4Z" fill="white"/>
</g>
<defs>
<clipPath id="clip0_696_200">
<rect width="64" height="64" fill="white"/>
</clipPath>
</defs>
</svg>
