<?xml version="1.0" encoding="UTF-8"?>
<svg id="Layer_2" data-name="Layer 2" xmlns="http://www.w3.org/2000/svg" viewBox="0 0 383.05 153.96">
  <defs>
    <style>
      .cls-1 {
        fill: #4fffa0;
      }

      .cls-2 {
        fill: #fff;
      }
    </style>
  </defs>
  <g id="Layer_1-2" data-name="Layer 1">
    <polygon class="cls-1" points="90.13 139.36 29.2 78.43 90.13 17.5 75.53 2.9 14.6 63.83 14.6 63.83 0 78.42 0 78.43 0 78.43 14.6 93.03 14.6 93.03 75.53 153.96 90.13 139.36"/>
    <polygon class="cls-1" points="292.92 136.46 353.85 75.53 292.92 14.6 307.52 0 368.45 60.93 368.45 60.93 383.05 75.52 383.04 75.53 383.05 75.53 368.45 90.13 368.45 90.12 307.52 151.05 292.92 136.46"/>
    <g>
      <path class="cls-2" d="M157.38,117.83c-2.65,5.34-6.01,9.9-10.07,13.68s-8.72,6.68-13.97,8.69c-5.25,2.01-10.86,2.92-16.82,2.75-4.82-.12-9.1-1.01-12.84-2.66-3.74-1.65-6.96-3.88-9.67-6.71-2.76-2.76-5.04-6.02-6.82-9.77-1.79-3.75-3.14-7.79-4.06-12.11-.97-4.26-1.53-8.72-1.67-13.37-.14-4.65.07-9.29.61-13.91l2.36-17.64c.65-4.86,1.67-9.72,3.05-14.58,1.38-4.86,3.1-9.48,5.16-13.86,2.06-4.38,4.48-8.45,7.27-12.2,2.79-3.75,5.94-6.98,9.47-9.68,3.52-2.7,7.41-4.8,11.66-6.3,4.25-1.5,8.87-2.19,13.85-2.07,6.07.12,11.35,1.31,15.84,3.56,4.5,2.25,8.23,5.33,11.21,9.23,2.92,3.9,5.15,8.52,6.66,13.86,1.52,5.34,2.36,11.19,2.52,17.55l-22.1-.09c0-3.18-.2-6.18-.61-9-.41-2.82-1.18-5.28-2.32-7.38-1.19-2.1-2.82-3.79-4.87-5.09-2.06-1.29-4.71-1.99-7.96-2.12-3.09-.12-5.82.38-8.21,1.49-2.38,1.11-4.47,2.6-6.26,4.46-1.84,1.92-3.43,4.17-4.75,6.75-1.33,2.58-2.45,5.28-3.37,8.1-.92,2.88-1.68,5.79-2.27,8.73-.6,2.94-1.06,5.76-1.38,8.46l-2.27,17.91c-.27,2.22-.52,4.68-.73,7.38-.22,2.7-.3,5.43-.24,8.19,0,2.76.22,5.46.65,8.1.43,2.64,1.19,4.98,2.27,7.02,1.08,2.1,2.55,3.8,4.39,5.09,1.84,1.29,4.2,2,7.07,2.12,3.25.18,6.15-.27,8.69-1.35,2.55-1.08,4.74-2.61,6.58-4.59,1.84-1.98,3.36-4.37,4.55-7.16,1.19-2.79,2.08-5.87,2.68-9.23l21.94-.18c-.81,6.6-2.55,12.57-5.2,17.91Z"/>
      <path class="cls-2" d="M202.8,103.43l-5.85,37.63h-22.42L195.08,9.99h22.34l-9.26,58.78,12.76-15.75,34.04-43.03h28.6l-49.56,58.5,29.17,72.57h-25.27l-19.82-53.56-15.27,15.93Z"/>
    </g>
    <polygon class="cls-1" points="174.52 141.06 180.39 103.65 254.96 9.99 283.56 9.99 174.52 141.06"/>
  </g>
</svg>