<svg width="551" height="296" viewBox="0 0 551 296" fill="none" xmlns="http://www.w3.org/2000/svg">
<path fill-rule="evenodd" clip-rule="evenodd" d="M459.472 120.183C453.428 115.579 438.253 113.511 431.804 117.944C425.431 122.394 424.735 129.587 421.767 136.209C418.964 134.887 414.339 136.78 413.526 139.378C412.52 140.606 412.475 144.049 411.779 145.699C381.555 150.509 376.965 174.075 373.328 200.823C368.513 227.971 357.587 255.057 362.33 282.992C361.719 283.869 361.199 284.806 360.776 285.788C359.698 287.622 361.09 290.225 363.264 290.121C366.084 289.874 368.877 289.537 371.707 289.434C379.557 289.159 387.411 289.191 395.266 289.29L396.335 289.308C435.913 289.798 475.491 290.769 515.07 291.025C516.507 291.029 517.208 289.739 517.019 288.472C516.633 285.914 516.273 283.356 515.901 280.798C525.26 283.27 535.212 283.891 544.548 281.054C545.199 280.389 543.026 280.753 542.68 280.649C551.271 274.778 548.707 262.416 547.948 253.506C543.214 222.986 541.544 189.22 523.261 163.173C515.353 152.546 503.757 144.13 490.433 142.238L490.06 142.184C486.166 141.667 481.824 141.5 478.415 139.378C474.584 136.321 472.95 130.671 468.921 130.612C467.587 130.599 465.778 132.28 463.829 133.426C463.685 130.909 462.329 128.787 462.032 126.84L462.005 126.67C461.691 124.399 462.122 122.354 459.472 120.183ZM394.516 201.632C403.008 195.729 424.951 198.696 425.458 199.025C426.559 199.753 427.035 199.816 427.636 200.76L429.406 201.007C430.587 201.389 429.711 202.846 428.346 202.329C429.168 205.871 426.747 208.393 425.786 211.895C425.472 213.033 425.773 215.078 425.786 216.242C425.696 217.726 424.053 219.475 424.327 220.963C425.297 226.245 430.569 231.401 428.346 236.531C426.873 239.426 422.445 240.9 419.503 241.885C413.409 244.227 402.784 241.799 399.24 236.531C397.354 233.721 395.163 226.631 394.035 224.433L393.788 220.945C393.173 212.277 392.621 202.945 394.516 201.632Z" fill="white"/>
<path fill-rule="evenodd" clip-rule="evenodd" d="M470.403 130.104C469.815 129.587 468.944 130.239 469.316 130.94C470.156 132.514 471.014 134.011 472.137 135.404C472.819 136.25 473.551 137.05 474.292 137.841C472.393 139.482 470.763 141.523 469.227 143.429C467.26 145.874 465.4 148.419 463.195 150.658C461.017 152.86 458.615 154.407 455.7 155.432L455.116 155.639C452.188 156.664 449.067 158.048 447.419 160.817C447.091 161.361 447.747 162.036 448.295 161.699C451.16 159.923 454.523 159.568 457.64 158.394C460.611 157.259 463.318 155.525 465.594 153.301C467.911 151.08 469.855 148.558 471.881 146.086C473.869 143.707 476.055 141.5 478.415 139.491C482.075 141.95 486.252 143.024 490.5 144.076L490.963 144.189C495.216 145.241 499.45 146.463 503.438 148.297C506.955 149.916 510.413 151.849 513.278 154.474C516.323 157.266 518.69 160.831 520.854 164.319C525.704 172.119 529.108 180.661 532.108 189.314C535.226 198.314 537.842 207.479 539.945 216.768C541.018 221.493 541.89 226.254 542.604 231.042C542.949 233.348 543.255 235.658 543.524 237.974C543.807 240.446 543.875 242.995 544.634 245.373C544.961 246.394 545.729 246.816 546.497 246.78L546.654 248.736C546.861 251.339 547.054 253.946 547.117 256.567C547.225 260.923 547.18 265.27 546.866 269.617L546.821 270.211C546.574 273.385 546.021 276.95 543.637 279.274C541.167 281.679 537.363 282.439 534.03 282.479C526.275 282.582 518.806 278.914 511.94 275.7C504.878 272.38 497.983 268.718 491.277 264.726C486.184 261.693 481.176 258.518 476.259 255.205C475.334 254.576 474.454 253.888 473.515 253.33C473.978 252.903 474.18 252.229 473.794 251.635C476.515 249.275 477.652 245.059 477.782 241.646C477.89 238.895 477.485 236.148 477.162 233.42C476.996 232.046 476.807 230.674 476.596 229.306C476.515 228.767 476.453 228.182 476.358 227.616C483.703 231.645 491.267 235.261 499.015 238.446C502.989 240.082 507.018 241.557 511.1 242.905L511.926 243.175C515.793 244.443 519.754 245.638 523.751 246.362C523.966 246.398 524.137 246.083 523.912 245.985C520.014 244.263 515.982 242.815 512.03 241.233L511.378 240.968C511.457 240.964 511.536 240.952 511.612 240.932C513.929 240.374 516.233 239.511 518.505 238.783C520.616 238.109 522.992 237.686 524.963 236.67C525.116 236.594 525.031 236.382 524.882 236.369C522.664 236.216 520.257 236.863 518.083 237.245L517.266 237.385C515.896 237.627 514.5 237.888 513.134 238.225C513.108 237.994 513.036 237.77 512.921 237.567C512.807 237.364 512.654 237.186 512.47 237.043C508.477 234.09 508.881 228.119 508.455 223.718L508.14 220.45C507.584 214.732 506.995 209.014 506.102 203.34C506.052 203.035 505.585 203.12 505.581 203.408C505.536 210.443 506.066 217.447 506.331 224.474L506.375 225.625C506.519 229.958 506.636 234.458 509.366 237.794C508.985 237.569 508.468 237.569 508.158 237.938C507.792 238.338 507.582 238.856 507.566 239.399C505.096 238.365 502.644 237.304 500.2 236.22C492.34 232.725 484.65 228.856 477.158 224.627C476.349 224.177 475.586 224.528 475.186 225.13L475.128 225.121H475.101L475.042 225.117C473.987 224.532 472.545 224.95 471.638 225.791L471.566 225.872C470.4 225.349 469.324 224.645 468.378 223.786C466.393 221.988 464.713 219.758 463.245 217.528C460.546 213.415 458.251 208.843 454.6 205.462C451.636 202.711 447.962 200.998 444.105 199.924C444.112 199.867 444.107 199.809 444.089 199.755C444.071 199.7 444.041 199.65 444.001 199.609C443.804 199.411 443.66 199.339 443.404 199.461C443.387 199.47 443.372 199.484 443.364 199.501L442.986 198.858C442.835 198.589 442.673 198.325 442.501 198.067C442.062 197.514 441.613 196.968 441.154 196.431C440.377 195.523 439.492 194.633 438.473 194.003C436.227 192.623 433.874 193.405 431.57 194.156C430.178 194.61 428.791 195.082 427.403 195.541L427.259 195.586C426.226 195.923 425.014 196.215 424.551 197.312C424.375 197.729 424.33 198.19 424.421 198.634C414.586 196.13 403.655 197.28 394.053 200.216C393.685 200.328 393.317 200.634 393.24 201.03C392.14 206.671 391.646 212.457 392.145 218.198C392.576 223.147 393.672 227.998 395.737 232.539L395.859 232.79C397.803 236.994 400.884 242.177 405.586 243.494C408.429 244.285 411.568 243.818 414.465 243.674C417.285 243.53 420.159 243.512 422.952 243.067C425.436 242.676 427.609 241.561 429.145 239.543C430.47 237.798 431.166 235.694 431.737 233.6C433.098 234.014 434.334 234.762 435.334 235.775C437.081 237.461 438.432 239.516 440.26 241.129C441.913 242.59 443.799 243.723 445.82 244.595C450.006 246.407 454.501 247.131 458.929 248.089L459.239 248.156C462.571 248.889 465.975 249.788 468.917 251.523C468.975 252.031 469.209 252.512 469.581 252.827C469.061 253.317 468.845 254.09 469.299 254.814C470.574 256.832 472.77 257.983 474.737 259.278L474.867 259.363C480.74 263.271 486.783 266.916 492.979 270.287C499.654 273.952 506.469 277.355 513.408 280.488C512.991 282.537 513.143 284.65 512.829 286.714L512.779 287.006C512.701 287.346 512.712 287.701 512.813 288.036C512.914 288.37 513.101 288.672 513.354 288.912L513.413 288.966L513.408 288.957L513.458 289.002L513.476 289.015L513.471 289.011C513.529 289.068 513.592 289.119 513.66 289.164L513.741 289.218C513.994 289.366 514.282 289.447 514.576 289.453C514.87 289.458 515.161 289.388 515.42 289.249L515.483 289.218L515.582 289.159C516.269 288.764 516.74 287.784 516.458 287.006C515.757 285.095 515.492 283.054 514.845 281.13L515.357 281.36L516.035 281.656C523.351 284.817 531.475 287.483 539.447 285.325C542.972 284.372 546.264 282.358 548.024 279.071C549.758 275.839 550.005 272.081 550.094 268.485C550.211 264.047 549.973 259.539 549.385 255.137C549.02 252.147 548.487 249.18 547.786 246.25C548.193 245.888 548.452 245.388 548.514 244.847C548.859 242.056 548.253 239.151 547.88 236.373C547.523 233.662 547.119 230.956 546.668 228.259C545.757 222.804 544.687 217.377 543.457 211.985C541.24 202.4 538.367 192.979 534.857 183.789L534.551 182.989C531.318 174.587 527.577 166.369 522.368 158.983C519.875 155.459 517.243 152.254 513.723 149.709C510.422 147.326 506.699 145.609 502.859 144.301C499.02 143.007 495.064 142.088 491.048 141.559C486.961 141.001 482.65 140.66 478.842 138.987C479.322 138.124 478.909 136.96 478.101 136.425C475.37 134.618 472.851 132.276 470.403 130.104ZM383.028 208.51C382.911 208.339 382.642 208.447 382.691 208.654C384.016 214.094 385.265 219.542 386.077 225.081C387.546 235.083 387.277 245.216 387.155 255.29L387.151 255.812C387.1 261.24 386.991 266.668 386.823 272.094C386.733 274.837 386.554 277.606 386.652 280.348C386.702 281.836 387.101 283.243 387.241 284.713C387.366 285.999 387.254 287.307 387.196 288.593C387.151 289.447 388.417 289.411 388.498 288.593L388.61 287.532C388.754 286.192 388.929 284.857 389.374 283.576C389.899 282.029 390.151 280.514 390.335 278.892C390.618 276.406 390.739 273.897 390.851 271.398L390.923 269.667C391.377 259.21 391.363 248.704 390.627 238.257L390.573 237.511C389.85 227.638 388.588 216.966 383.028 208.51ZM411.321 146.283C411.667 146.14 411.545 145.618 411.164 145.708L410.463 145.874C405.348 147.102 400.327 148.428 395.553 150.707C390.814 152.998 386.685 156.383 383.509 160.584C377.262 168.725 374.662 178.62 372.614 188.505C370.337 199.492 368.262 210.515 365.967 221.493L365.536 223.539C363.412 233.766 361.404 244.002 359.922 254.351L359.819 255.101C358.328 265.742 357.43 276.752 359.056 287.42C359.379 289.532 362.891 289.007 362.752 286.921C362.357 280.892 362.074 274.895 362.348 268.853C362.621 262.807 363.192 256.792 364.036 250.799C364.746 245.76 365.806 240.779 366.744 235.78L366.892 234.989C367.678 230.736 368.487 226.483 369.295 222.235L370.503 215.869C372.313 206.343 374.159 196.808 376.242 187.341L376.364 186.783C378.407 177.676 381.416 168.132 387.533 160.898C393.743 153.557 402.635 149.857 411.321 146.283ZM433.892 242.901C433.739 242.568 433.219 242.604 433.057 242.901C432.428 244.061 432.356 245.544 432.24 246.857L432.226 246.992C432.073 248.592 431.943 250.197 431.858 251.802C431.555 257.966 431.563 264.142 431.88 270.305L431.925 271.141C432.078 273.852 432.338 276.878 433.627 279.247C434.094 280.11 435.37 279.858 435.639 278.986C436.528 276.131 436.07 272.746 435.846 269.824L435.666 267.545C435.486 265.264 435.327 262.982 435.19 260.698C435.01 257.574 434.862 254.445 434.719 251.321C434.674 250.305 434.62 249.289 434.566 248.273L434.485 246.749C434.413 245.477 434.418 244.079 433.892 242.901ZM533.828 246.947L533.438 246.565C532.23 245.382 530.703 243.562 528.915 243.678C528.754 243.681 528.596 243.721 528.452 243.794C528.308 243.867 528.183 243.972 528.085 244.1C527.988 244.229 527.92 244.378 527.888 244.536C527.856 244.694 527.86 244.857 527.9 245.014C528.215 246.511 529.742 247.288 530.842 248.201C532.046 249.203 533.182 250.273 534.313 251.352C535.319 252.31 536.285 253.299 537.232 254.315L537.583 254.697C537.92 255.066 540.331 257.241 540.071 257.808L540.057 257.835C539.985 257.943 540.102 258.091 540.223 258.055C541.265 257.722 541.198 256.832 540.807 255.929C540.053 254.193 538.728 252.588 537.574 251.105C536.421 249.635 535.17 248.246 533.828 246.947ZM430.12 203.426C430.928 201.524 433.892 201.56 435.572 201.672C439.807 201.96 444.387 203.035 448.16 205.013C452.067 207.067 454.699 210.353 457.052 213.99L457.164 214.161C459.459 217.73 461.673 221.956 465.266 224.411C467.098 225.656 469.236 226.798 471.454 227.292C471.607 227.562 471.858 227.773 472.177 227.85L472.33 227.886C472.959 228.025 473.947 228.178 474.795 228.088C474.791 228.502 474.795 228.915 474.782 229.306C474.75 230.435 474.737 231.568 474.737 232.696C474.737 235.061 474.867 237.43 474.768 239.794C474.679 241.885 474.387 244.07 473.381 245.935C472.644 247.306 471.674 248.214 470.502 249.082C467.614 247.324 464.35 246.25 461.04 245.445C457.034 244.47 452.934 243.818 449.018 242.496C447.127 241.883 445.331 241.009 443.682 239.898C441.94 238.697 440.611 237.07 439.236 235.483L439.025 235.236C437.633 233.635 436.106 232.103 434.13 231.235C432.433 230.484 430.192 230.349 428.705 229.194C427.928 228.587 427.861 227.71 427.78 226.811C428.732 226.946 429.738 226.726 430.69 226.614L431.18 226.56C432.078 226.452 432.954 226.335 433.838 226.106C434 226.061 434 225.818 433.838 225.773C432.792 225.503 431.759 225.391 430.69 225.265L430.439 225.233C429.469 225.108 428.449 224.914 427.502 225.126C427.328 224.466 427.072 223.832 426.738 223.237C426.253 222.37 425.337 221.381 425.211 220.36C425.18 220.041 425.243 219.719 425.391 219.434L425.44 219.344C425.494 219.231 425.574 219.132 425.674 219.057C425.687 219.07 425.714 219.088 425.764 219.102C426.496 219.335 427.133 218.976 427.47 218.427C428.907 218.603 430.479 218.544 431.826 218.603L433.187 218.665C434.642 218.733 436.165 218.764 437.53 218.468C437.723 218.427 437.781 218.108 437.588 218.027C435.909 217.308 433.865 217.083 432.064 216.804C431.063 216.652 430.048 216.535 429.042 216.4C428.368 216.31 427.659 216.157 426.963 216.121C425.216 213.95 426.154 210.524 428.584 209.589C429.469 209.98 430.264 209.751 431.229 209.67C432.195 209.585 433.16 209.531 434.13 209.535C436.07 209.544 438.127 210.052 440.045 209.832C440.359 209.796 440.647 209.382 440.337 209.126C438.868 207.926 436.757 207.535 434.894 207.283L434.507 207.229C433.879 207.148 433.115 207.027 432.329 206.959C432.236 206.773 432.097 206.614 431.926 206.495C431.755 206.376 431.557 206.303 431.35 206.28L430.919 206.235V206.222C429.752 206.163 429.796 204.19 430.12 203.426ZM510.453 240.5L510.521 240.59L510.556 240.635L510.363 240.559L510.453 240.5ZM450.72 212.808H450.679C449.664 212.925 448.964 213.752 448.717 214.727C448.357 216.143 448.537 217.425 447.666 218.71C446.768 220.028 446.22 221.084 446.09 222.711C446.036 223.381 446.058 224.047 445.91 224.703L445.802 225.166C445.665 225.648 445.613 226.15 445.649 226.649C445.703 227.13 445.937 227.504 446.417 227.656C447.989 228.16 449.197 227.005 449.601 225.544C449.952 224.285 449.485 222.779 449.979 221.592C450.248 220.936 450.756 220.387 451.038 219.726C451.321 219.07 451.465 218.387 451.51 217.672C451.6 216.323 450.405 214.705 451.07 213.487C451.209 213.226 451.052 212.799 450.72 212.808ZM471.544 198.899C470.484 198.683 469.276 198.188 468.23 198.602C467.691 198.813 467.426 199.47 467.879 199.924C468.67 200.715 469.819 200.76 470.879 200.949L470.974 200.962C474.593 201.643 478.232 202.21 481.887 202.662C484.343 202.963 486.804 203.232 489.265 203.439L490.217 203.516C492.296 203.682 494.461 203.808 496.504 203.489C496.796 203.444 496.751 203.012 496.504 202.936C494.263 202.261 491.811 202.082 489.499 201.794C484.589 201.195 479.699 200.442 474.836 199.537C473.737 199.333 472.639 199.121 471.544 198.899ZM433.237 196.727C434.166 196.399 435.19 195.909 436.201 196.071C437.943 196.354 439.492 198.049 440.871 199.169L440.175 199.034C436.636 198.355 431.948 197.622 428.975 199.87L428.952 199.834C428.714 199.47 428.436 199.182 428.13 198.872C428.103 198.844 428.076 198.815 428.05 198.786L427.883 198.611L428.261 198.485C429.06 198.197 430.012 197.833 430.16 197.779H430.169C431.193 197.429 432.222 197.087 433.237 196.727ZM462.324 122.52C462.468 120.646 459.553 120.664 459.405 122.52C459.102 126.567 459.996 130.613 461.974 134.155L462.019 134.227C459.225 135.702 456.31 136.936 453.306 137.913C451.779 138.403 449.902 138.596 448.622 139.617C445.919 141.77 446.934 146.234 447.455 149.134L447.536 149.588C447.792 151.08 447.985 152.609 447.356 154.038C446.682 155.567 445.326 156.7 444.113 157.792L443.871 158.017C442.793 158.992 441.572 160.175 440.786 161.501C440.067 160.017 439.088 158.803 438.055 157.441C437.314 156.466 437.84 156.142 438.37 155.194C438.882 154.276 439.133 153.296 438.971 152.254C438.675 150.32 437.135 148.927 435.599 147.879C433.784 146.643 431.759 145.726 429.886 144.575C425.997 142.212 422.322 139.514 418.902 136.51C418.812 136.425 418.646 136.533 418.722 136.645C421.325 140.678 424.586 144.244 428.368 147.196C429.931 148.405 431.57 149.408 433.219 150.46L433.695 150.766C434.355 151.193 435.181 151.768 435.482 152.496C435.783 153.234 435.141 153.786 434.795 154.398C433.695 156.331 434.225 158.129 435.527 159.77L435.59 159.846C436.883 161.442 437.867 162.926 438.334 164.962C439.344 169.341 437.939 173.899 436.47 178.008L436.412 178.17C435.617 180.386 434.768 182.585 434.076 184.837L433.888 185.457C433.259 187.525 432.751 189.571 433.452 191.697C433.69 192.425 434.678 192.596 435.091 191.913C436.537 189.512 436.897 186.617 437.804 183.978C438.688 181.402 439.703 178.871 440.557 176.291C441.657 172.96 442.393 169.377 441.994 165.884L442.025 165.825L442.308 165.21C443.072 163.555 443.808 162.108 445.196 160.786C446.642 159.406 448.214 158.188 449.354 156.515C451.824 152.892 450.298 148.864 449.997 144.899L449.965 144.413C449.911 143.591 449.88 142.476 450.414 141.905C451.021 141.262 452.44 141.096 453.244 140.817C455.314 140.084 457.357 139.226 459.306 138.201C461.164 137.239 462.941 136.128 464.619 134.878L465.468 134.245C466.802 133.238 468.189 132.132 469.083 130.765C469.186 130.603 469.011 130.351 468.822 130.428C467.331 131.03 465.962 131.997 464.565 132.837C462.799 129.702 462.018 126.107 462.324 122.52ZM414.581 143.973C413.984 142.341 411.271 142.467 411.379 144.404C411.46 145.897 412.098 147.241 412.673 148.594L412.736 148.738C413.333 150.15 414.024 151.476 414.846 152.766C416.427 155.239 418.273 157.531 420.249 159.694C422.036 161.654 424.385 162.854 427.093 162.656C428.234 162.571 429.383 162.283 430.385 161.712C431.57 161.038 432.855 159.001 434.373 159.496C434.521 159.541 434.656 159.329 434.53 159.226C432.778 157.819 430.798 159.999 429.123 160.53C427.918 160.911 426.625 160.911 425.419 160.531C424.214 160.15 423.155 159.407 422.386 158.403C420.695 156.222 419.136 153.942 417.716 151.575C416.987 150.399 416.333 149.178 415.758 147.92C415.183 146.648 415.053 145.268 414.581 143.973ZM418.646 133.921C418.717 133.696 418.439 133.485 418.241 133.611C417.092 134.361 416.095 135.346 415.035 136.218C413.863 137.176 412.677 138.115 411.474 139.041C409.722 140.39 411.756 142.88 413.297 141.406C415.408 139.383 417.725 136.744 418.646 133.921ZM424.951 126.018C424.484 124.22 421.726 124.961 422.126 126.737L422.139 126.796C422.903 129.731 421.816 132.725 419.499 134.627L419.413 134.699C417.949 135.867 420.024 137.917 421.479 136.758C424.645 134.222 425.961 129.915 424.951 126.018Z" fill="#2B283A"/>
<path fill-rule="evenodd" clip-rule="evenodd" d="M398.324 59.1698C395.441 57.1019 399.734 50.2822 401.198 48.2547L405.002 40.3157C404.845 38.1443 406.96 36.2113 409.053 36.8721C410.867 35.5684 413.917 36.1933 414.837 38.2388C434.943 29.4636 469.73 33.1139 471.526 60.1903C475.415 67.8955 479.268 75.6727 482.722 83.5893C487.509 83.8455 489.827 89.6717 486.979 93.4389C486.598 99.5528 482.731 100.038 477.562 99.7686C475.487 100.313 473.34 100.614 471.782 102.219C470.601 103.428 469.797 104.961 469.02 106.453C465.441 113.327 460.892 119.27 454.73 124.031C445.142 131.215 432.168 136.375 420.213 132.878C394.516 122.763 389.468 82.3486 398.324 59.1698Z" fill="white"/>
<path fill-rule="evenodd" clip-rule="evenodd" d="M451.955 19.7847C435.163 15.8782 416.301 21.1244 404.647 34.0445C404.276 34.4258 404.067 34.9371 404.065 35.47C404.063 36.0029 404.269 36.5155 404.638 36.8991C404.302 37.1688 403.974 37.452 403.642 37.7353C403.291 38.032 403.341 38.6254 403.642 38.9311C403.938 39.2278 404.549 39.2907 404.832 38.9311L405.249 38.4051C405.456 38.1444 405.658 37.8791 405.856 37.6094L406.57 37.8836C402.992 40.233 400.05 43.4313 398.005 47.1938C395.805 51.2937 394.399 55.6723 393.483 60.2307C391.857 68.3496 391.619 76.6842 391.839 84.9425L391.848 85.3875C392.131 95.345 393.101 105.464 397.291 114.622C400.651 121.963 406.623 128.706 414.11 131.92C418.421 133.768 423.06 134.559 427.74 134.231C430.215 134.057 432.67 133.669 435.078 133.071L435.657 132.927C437.844 132.374 440.117 131.741 441.989 130.482C443.903 129.192 442.609 126.629 440.494 126.939C437.948 127.317 435.522 128.382 432.994 128.935C430.524 129.479 428.018 129.763 425.485 129.691C421.094 129.572 416.832 128.179 413.216 125.681C399.056 116.096 397.332 96.8286 396.964 81.2607C396.784 73.6543 397.062 65.949 398.805 58.5135C400.484 51.3656 403.372 44.3347 407.459 38.2298C408.361 38.5669 409.264 38.8502 410.221 38.9356C411.927 39.9695 413.966 39.992 415.942 39.9965H416.216C418.273 39.992 420.33 39.8706 422.378 39.6818C429.621 39.039 437.076 37.4071 444.361 38.4456L444.657 38.4905C447.657 38.9401 451.371 39.8931 453.571 42.0554C455.952 44.3841 454.357 48.7987 452.476 50.2013C451.259 51.1094 450.877 53.1548 452.476 53.9775C455.628 55.6094 463.258 54.7058 464.116 55.6049C465.149 56.6838 465.073 58.3291 465.104 59.7317V59.8216C465.212 63.8091 465.113 67.7787 464.776 71.7572C464.453 75.6008 463.716 79.4535 463.555 83.3106C463.496 84.5783 465.028 84.9649 465.868 84.2681C466.029 84.1333 466.2 83.9984 466.371 83.886C467.888 82.8071 469.617 82.3486 471.472 82.0609C471.562 82.0468 471.643 82.0004 471.701 81.9305L471.724 81.9035L471.921 82.0654C471.524 82.5609 471.196 83.1084 470.947 83.6927C470.893 83.8141 471.01 83.9714 471.14 83.8905C473.709 82.3621 476.502 81.7102 479.453 82.3306C482.111 82.8835 484.514 84.5783 485.291 87.2756C486.009 89.7661 485.484 92.6343 483.876 94.6797C481.5 97.7097 477.643 97.4399 474.18 97.5793C473.507 97.6063 472.743 97.9389 472.429 98.5863C472.056 99.3505 472.083 99.872 472.429 100.636C472.478 100.744 472.541 100.843 472.613 100.933C472.321 101.179 472.041 101.438 471.773 101.711L470.87 102.623C470.251 103.253 469.635 103.882 469.043 104.529C467.304 106.443 465.663 108.443 464.125 110.522L463.981 110.715C462.176 113.188 460.303 116.762 457.178 117.539C456.1 117.809 455.107 118.339 454.788 119.504C454.47 120.668 455.22 121.797 456.23 122.282C457.981 123.127 460.205 122.125 461.646 121.059C464.763 118.758 466.802 115.004 468.715 111.704L469.236 110.801C470.224 109.092 471.185 107.37 472.007 105.581C472.474 104.556 472.977 103.545 473.412 102.506C473.545 102.205 473.663 101.897 473.767 101.585C473.903 101.615 474.041 101.635 474.18 101.643C478.357 101.913 483.171 101.252 486.189 98.0738C490.352 93.6952 490.837 85.8641 486.108 81.6877C485.598 81.2386 485.039 80.848 484.442 80.5234C485.286 79.0938 485.848 77.4305 486.261 75.8706C486.846 73.5952 487.216 71.2698 487.366 68.925C487.702 64.1373 487.141 59.2597 485.991 54.6069C481.828 37.7443 469.038 23.7633 451.95 19.7893L451.955 19.7847ZM482.21 89.7706C483.036 84.9649 473.444 88.5164 471.351 88.8535L471.288 88.8626C468.89 89.1952 470.228 93.4165 472.59 92.1577L472.658 92.1173C473.938 91.3845 475.343 90.8586 476.682 90.2382L476.969 90.1033C478.033 89.5908 481.554 87.2891 481.936 89.7706C481.958 89.9055 482.188 89.9055 482.21 89.7706Z" fill="#2B283A"/>
<path fill-rule="evenodd" clip-rule="evenodd" d="M438.495 115.952C436.591 111.475 432.428 108.189 427.636 106.984C424.115 106.103 420.424 106.13 416.836 106.48C414.958 106.66 412.942 106.813 411.168 107.514C409.655 108.108 408.424 109.236 407.499 110.562C406.394 112.136 405.644 113.934 405.119 115.777C405.044 116.04 404.973 116.303 404.908 116.568C405.132 117.957 405.622 119.14 406.906 120.016C408.164 120.87 409.659 121.217 411.15 121.342C411.294 121.271 411.438 121.199 411.568 121.122C413.89 119.792 415.529 116.64 418.461 117.067C421.08 117.449 422.804 120.749 424.362 122.687C429.361 123.271 434.355 121.761 438.419 118.897C438.619 117.928 438.645 116.931 438.495 115.952ZM401.513 112.563C401.917 111.439 402.415 110.351 403.013 109.326C404.989 105.924 408.004 103.245 411.613 101.684C420.123 98.0333 431.13 100.605 438.001 106.593C440.35 108.638 442.721 111.646 443.44 114.882C443.655 114.923 443.857 115.035 444.024 115.193C448.986 112.059 454.101 109.047 458.098 104.705C460.962 101.56 463.071 97.8023 464.264 93.7177C464.363 93.3805 464.906 93.43 464.893 93.8031L464.875 94.0638C464.929 93.9065 465.171 93.9874 465.189 94.1447C465.858 99.1257 466.689 104.408 465.921 109.416C465.463 112.405 464.111 114.595 462.297 116.955C460.325 119.472 458.193 121.859 455.915 124.103C454.487 125.541 452.996 127.191 451.254 128.239C449.224 129.466 446.92 130.396 444.756 131.336C442.555 132.298 440.31 133.184 438.033 133.957C433.48 135.519 428.764 136.552 423.976 137.036C420.141 137.409 415.758 137.818 412.075 136.371C409.259 135.261 406.987 133.26 405.182 130.85C403.189 128.228 401.705 125.254 400.808 122.084C399.914 118.803 401.324 113.093 401.513 112.563Z" fill="#2B283A"/>
<path fill-rule="evenodd" clip-rule="evenodd" d="M415.242 103.527C414.312 101.89 411.546 102.156 411.119 104.066C410.266 107.937 414.878 111.511 418.385 111.601C421.87 111.691 425.777 108.724 425.274 104.979C425.148 104.053 423.913 104.165 423.491 104.745L423.325 104.97C422.18 106.507 420.667 108.099 418.542 107.726C417.654 107.545 416.865 107.041 416.328 106.31C415.682 105.455 415.753 104.435 415.242 103.527ZM437.395 75.2142C436.942 75.0916 436.461 75.1265 436.03 75.3131C435.566 75.4161 435.137 75.6406 434.787 75.9636C434.438 76.2866 434.18 76.6966 434.04 77.1518C434.019 77.2274 433.995 77.3024 433.969 77.3765L433.924 77.4889L434.04 77.2057C433.987 77.4889 433.758 77.7811 433.677 78.0598C433.578 78.4258 433.548 78.8068 433.587 79.1837C433.286 79.1837 432.99 79.1972 432.693 79.2242L432.406 79.2467C430.807 79.3995 429.047 79.6693 428.095 81.0539C427.565 81.8316 428.063 83.2297 429.047 83.3825C430.551 83.6118 431.853 82.7756 433.358 82.6093C434.777 82.4519 436.263 82.5418 437.669 82.7981C440.561 83.3286 443.224 84.5064 446.045 85.2392L446.431 85.3381C446.911 85.4504 447.464 84.7806 446.983 84.385C444.597 82.4833 441.883 81.0344 438.976 80.1098C439.189 79.781 439.323 79.4077 439.368 79.0186C439.413 78.6296 439.368 78.2354 439.236 77.8665C439.191 77.7203 439.138 77.5763 439.079 77.435L438.958 77.1428C438.946 77.0057 438.92 76.8702 438.882 76.7382L438.877 76.6932C438.772 76.3425 438.582 76.0233 438.323 75.7644C438.064 75.5054 437.746 75.3194 437.395 75.2142ZM408.555 75.3221C407.935 74.7017 407.064 74.7916 406.421 75.2771L406.332 75.3491C405.726 75.6685 405.227 76.1574 404.894 76.7561C404.544 77.2831 404.342 77.8951 404.311 78.5274C402.815 78.5274 401.383 78.9769 400.282 80.1907C399.928 80.5773 399.685 81.1797 399.878 81.7102L399.999 82.0249C400.368 83.0229 402.025 83.5983 402.591 82.4205L402.613 82.362C403.215 80.9684 405.514 81.1168 406.736 81.2606C407.589 81.3595 408.429 81.5708 409.251 81.8091C409.543 81.89 409.83 81.9799 410.117 82.0743L410.405 82.1642C410.558 82.2182 411.352 82.6497 410.854 82.5463C410.724 82.5194 410.625 82.7127 410.764 82.7801C411.348 83.0633 411.981 82.4969 411.945 81.863C411.873 80.7616 410.122 80.1547 409.282 79.7771L409.233 79.7547C408.901 79.6021 408.564 79.4612 408.222 79.3321C408.611 78.739 408.867 78.0689 408.972 77.3675C409.018 77.1998 409.018 77.0228 408.972 76.8551L408.968 76.8056C408.991 76.6917 409.001 76.5756 408.999 76.4595L409.004 76.4145C408.993 76.0076 408.833 75.619 408.555 75.3221ZM418.435 87.0553C416.054 87.7881 412.138 89.7886 413.378 92.8725C415.102 95.7047 419.688 93.6232 421.911 92.7107C423.904 92.0498 424.946 94.846 423.015 95.6867C407.073 101.994 407.126 85.347 417.851 85.5943C419.036 85.6213 419.072 86.8081 418.435 87.0553ZM439.533 65.3511L439.129 65.2342C437.018 64.6228 434.871 63.5709 433.003 65.2162C432.267 65.8591 432.114 67.1987 432.644 68.0034C433.838 69.8376 435.608 69.5589 437.543 69.7117C439.016 69.8331 440.462 70.2647 441.837 70.8041C442.959 71.2492 444.001 71.8696 444.985 72.5619C445.95 73.2452 446.611 74.3106 447.599 74.922C447.962 75.1468 448.384 74.9175 448.515 74.5534C448.973 73.2587 448.196 71.6448 447.536 70.5434C446.727 69.1992 445.501 68.0978 444.185 67.2662C442.748 66.3536 441.154 65.8276 439.533 65.3511ZM408.851 63.9575C405.29 63.9575 401.868 65.9355 399.874 68.8396C399.2 69.8286 399.694 71.2851 400.664 71.8516C401.755 72.4899 402.918 72.0314 403.637 71.1188L403.682 71.0649C404.823 69.5454 406.291 68.3451 408.038 67.5674C408.891 67.1852 409.83 66.8796 410.751 66.7222L411.047 66.6728C411.467 66.5823 411.899 66.558 412.327 66.6008C412.529 66.6278 412.713 66.6907 412.884 66.7941C412.803 66.974 413.019 67.1897 413.212 67.0818C414.096 66.5963 413.984 65.7332 413.257 65.0589C412.224 64.1058 410.185 63.962 408.851 63.962V63.9575Z" fill="#2B283A"/>
<path fill-rule="evenodd" clip-rule="evenodd" d="M377.163 170.186L366.439 171.238C349.315 172.546 332.2 175.284 315.206 176.92C314.784 176.232 313.958 176.345 313.455 176.821C311.757 176.673 309.862 175.378 308.322 176.727L308.174 176.704C305.434 171.458 303.548 165.861 301.711 160.251C300.544 156.807 298.967 153.472 296.053 151.157C291.086 147.709 279.706 140.718 273.868 141.01C273.775 139.931 273.282 138.925 272.484 138.192C274.249 135.189 267.203 133.229 266.705 133.579C267.023 123.541 262.304 114.824 251.889 112.828C242.566 110.881 229.3 110.558 224.284 120.304C222.039 120.232 219.792 120.221 217.547 120.273C216.703 119.198 207.389 129.376 211.206 132.918C177.089 148.01 157.688 146.207 148.243 188.636C146.968 192.623 146.874 196.984 145.526 200.881C140.73 212.08 136.837 224.006 135.871 236.189C133.536 236.791 133.266 240.914 135.97 241.507C137.003 241.736 137.869 242.047 138.624 242.64C138.04 252.624 140.452 275.439 141.974 275.367C145.073 285.244 158.918 288.026 168.717 284.56C167.029 287.734 168.717 289.735 168.717 291.434C203.976 292.765 242.53 291.996 277.779 293.826C282.288 293.763 287.03 294.936 291.476 294.262C294.193 293.61 294.193 289.344 291.445 288.818L303.467 286.206C303.198 286.107 308.421 282.632 312.368 276.14C316.046 268.876 313.545 260.109 315.211 252.206C328.212 251.145 341.438 250.691 354.3 248.489C356.051 253.735 363.641 247.459 366.057 244.937C366.054 244.933 366.051 244.928 366.048 244.924C366.645 244.756 367.173 244.403 367.557 243.916C367.941 243.429 368.161 242.833 368.186 242.213C369.003 241.044 369.174 239.394 368.392 238.261C371.989 217.492 377.477 196.282 379.462 175.315C380.17 175.164 380.83 174.841 381.384 174.376L381.34 174.331C382.287 173.274 382.471 171.454 380.89 170.555C379.615 169.826 378.551 170.051 377.163 170.186Z" fill="white"/>
<path fill-rule="evenodd" clip-rule="evenodd" d="M224.93 118.038C225.995 115.368 229.583 116.406 229.183 119.207C228.945 120.888 228.025 122.664 227.198 124.139C226.525 125.335 225.761 126.503 224.715 127.402C226.569 129.133 228.492 130.797 230.463 132.379C232.619 134.105 234.878 135.692 237.217 137.158C239.27 138.439 241.412 139.572 243.343 141.037C245.139 142.395 246.779 144.031 247.609 146.162C248.503 148.437 248.117 150.788 247.461 153.058L247.385 153.314C246.72 155.562 245.562 158.277 247.165 160.399C247.982 161.478 249.168 162.243 250.192 163.106C251.103 163.87 251.957 164.706 252.743 165.605C254.449 167.556 255.841 169.754 256.717 172.205L256.793 172.429C257.548 174.596 258.096 177.253 257.081 179.379C256.789 179.991 255.85 179.793 255.689 179.2C255.316 177.851 255.338 176.444 255.028 175.077C254.701 173.662 254.176 172.3 253.47 171.031C252.108 168.591 250.291 166.434 248.117 164.679L247.466 164.153C245.777 162.768 244.223 161.294 243.882 159.001C243.514 156.542 244.497 154.205 245.13 151.88C245.571 150.262 245.714 148.707 245.238 147.246C244.654 148.194 243.864 149.098 243.235 149.898C241.982 151.503 240.72 153.094 239.463 154.69C237.584 157.053 235.8 159.49 234.114 161.995C233.715 162.571 233.162 163.146 232.727 163.735C232.83 164.05 232.825 164.414 232.637 164.675C230.333 167.776 227.063 161.298 226.21 159.658C224.472 156.322 223.179 152.779 221.436 149.444C219.63 145.971 217.572 142.636 215.279 139.464C213.887 137.558 212.338 135.764 211.067 133.795C208.08 136.506 204.146 138.322 200.536 139.967C196.566 141.779 192.443 143.258 188.37 144.827L187.171 145.294C180.156 148.028 172.975 151.035 167.146 155.895C160.297 161.604 156.246 169.57 153.228 177.81C149.757 187.3 146.883 197.051 144.206 206.788C142.834 211.774 141.536 216.779 140.313 221.803C139.235 226.222 138.346 230.691 137.097 235.07C139.625 234.98 142.509 235.96 144.669 236.243C154.508 237.533 164.218 239.583 173.505 243.139C174.655 243.579 174.987 244.726 174.735 245.652L176.72 245.09C175.997 243.98 176.343 241.993 176.397 240.765L176.402 240.68C176.46 239.039 176.64 237.398 176.752 235.757C176.976 232.637 177.259 229.536 177.641 226.434L177.735 225.656C178.166 222.284 178.49 218.881 178.957 215.514L179.015 215.128C178.791 214.264 178.521 213.41 178.252 212.565C177.515 210.304 176.478 208.177 175.571 205.988C175.463 205.732 175.831 205.584 176.002 205.736C177.538 207.121 178.764 208.879 179.743 210.717L179.792 210.457L179.904 209.904C180.183 208.555 180.52 207.144 181.342 206.051C181.431 205.939 181.607 205.916 181.687 206.051C182.478 207.391 182.568 209.081 182.689 210.601C182.824 212.322 182.842 214.062 182.819 215.788C182.774 219.16 182.532 222.541 182.343 225.903C182.146 229.198 181.806 232.483 181.324 235.748L181.234 236.364C181.005 237.924 180.816 239.502 180.515 241.049L180.425 241.471C180.264 242.235 180.165 243.319 179.842 244.218C188.14 241.905 196.451 239.639 204.775 237.421C210.793 235.816 216.815 234.233 222.838 232.642C223.152 232.071 223.552 231.536 224.046 231.055C225.671 229.482 227.827 228.78 229.803 229.99C229.965 230.089 229.983 230.34 229.803 230.439C229.422 230.645 229.045 230.858 228.671 231.078L232.291 230.098C234.99 229.369 237.725 228.452 240.491 227.94C245.589 225.427 251.067 223.606 256.434 221.808L257.063 221.597C259.811 220.657 262.654 219.61 265.492 219.093C267.572 218.71 270.01 219.169 270.85 221.295C271.905 221.997 272.902 222.815 273.859 223.62C274.555 224.204 275.224 224.824 275.898 225.427L276.023 225.535C276.576 226.016 277.016 226.335 277.151 227.104C277.222 227.495 276.971 228.03 276.486 227.976C274.995 227.818 273.782 226.088 272.772 225.058C271.974 224.262 271.212 223.429 270.491 222.563C270.077 222.788 269.507 222.747 269.242 222.248C267.872 219.65 264.113 221.448 262.039 222.069L259.061 222.945C257.57 223.386 256.084 223.831 254.597 224.28C250.515 225.521 246.455 226.91 242.337 228.048C242.705 228.452 242.651 229.171 241.955 229.446C238.731 230.713 235.192 231.365 231.842 232.233C229.727 232.781 227.611 233.334 225.501 233.892C225.141 234.476 224.876 235.141 224.769 235.915C224.364 238.756 225.141 242.033 225.9 244.784L226.013 245.193C226.637 247.401 227.553 250.111 229.457 251.505C229.945 251.861 230.518 252.08 231.119 252.139C234.846 250.215 238.578 248.295 242.315 246.38C243.006 246.025 243.644 246.506 243.797 247.077C245.117 246.861 246.428 246.52 247.627 246.115C249.639 245.432 251.207 244.128 253.093 243.229C256.739 241.485 260.462 243.624 263.727 245.252L264.482 245.62C265.946 246.331 268.991 247.697 269.691 245.755C270.374 243.876 268.227 241.867 266.839 241.022C265.182 240.01 263.26 239.471 261.388 239.021C260.32 238.763 259.241 238.556 258.154 238.401C256.924 238.23 255.648 238.257 254.463 237.857C253.87 237.659 253.78 236.719 254.463 236.567C256.29 236.148 258.468 236.602 260.377 237.066L261.374 237.313C263.292 237.785 265.236 238.374 266.983 239.313C268.254 240.001 269.597 241.04 270.477 242.312C271.241 241.601 272.184 241.628 273.172 241.889L273.711 242.038C274.595 242.285 275.314 242.451 276.176 242.28C277.491 235.484 278.963 228.72 280.591 221.992C283.15 211.464 286.114 201.043 289.46 190.735L289.797 189.701C290.565 187.345 291.189 184.778 292.429 182.612C293.605 180.562 295.487 179.384 297.728 178.759C300.265 178.049 302.937 177.68 305.524 177.199L307.262 176.884C306.768 176.003 306.409 175.001 306.077 174.232L306.023 174.097C305.325 172.486 304.673 170.855 304.069 169.206L303.611 167.965C302.506 164.985 301.366 162.049 299.807 159.262C298.197 156.374 295.974 153.875 293.295 151.939C287.776 147.893 281.125 145.825 275.772 141.496C275.556 141.316 275.835 141.015 276.059 141.127C279.67 142.943 283.573 144.18 287.331 145.659L288.073 145.951C291.045 147.129 294.059 148.41 296.632 150.316C299.464 152.413 301.794 155.114 303.454 158.224C305.129 161.316 306.193 164.782 307.374 168.087L307.689 168.968C308.169 170.289 308.659 171.607 309.225 172.892C309.674 173.913 310.505 175.077 310.886 176.241L313.999 175.706C336.506 171.951 359.245 169.743 382.054 169.098C382.947 169.076 383.406 169.925 383.275 170.703C381.088 183.641 379.144 196.624 377.01 209.576C376.079 215.227 375.127 220.875 374.154 226.519C373.66 229.378 373.094 232.228 372.627 235.088C372.25 237.403 371.976 239.731 371.329 241.993C370.75 244.02 369.861 245.971 368.401 247.518C366.825 249.181 364.629 249.99 362.411 250.372C356.797 251.339 351.031 251.73 345.368 252.377L315.207 255.807C315.651 259.813 315.683 263.755 315.476 267.806L315.364 270.018C315.274 271.798 315.157 273.582 314.901 275.34C314.582 277.552 313.572 279.422 312.081 281.072C310.716 282.587 309.054 283.877 307.442 285.118C305.762 286.404 304.029 287.644 302.062 288.44L301.806 288.543C300.077 289.218 296.83 290.265 294.468 289.883C294.777 291.43 295.375 293.093 294.845 294.626C294.598 295.336 293.668 295.691 293.098 295.084C291.971 293.889 291.885 292.302 291.616 290.737C291.34 289.109 291.096 287.475 290.884 285.837C290.45 282.667 290.173 279.477 290.053 276.28C289.952 272.999 289.989 269.716 290.165 266.439C290.292 263.774 290.573 261.119 291.005 258.487L288.297 258.792C284.147 259.255 279.989 259.673 275.812 259.741C275.595 259.747 275.379 259.7 275.184 259.605C274.988 259.509 274.819 259.368 274.69 259.192C274.545 259.429 274.34 259.623 274.095 259.754C273.85 259.884 273.575 259.947 273.297 259.934C267.459 259.912 262.025 258.001 256.717 255.753C254.045 254.62 251.409 253.393 248.728 252.265C246.226 251.217 243.554 250.467 241.111 249.284L234.698 252.651C234.654 252.807 234.597 252.959 234.527 253.105C234.11 253.955 233.283 254.418 232.444 254.769C231.667 255.089 230.822 255.21 229.987 255.119C225.119 257.668 220.255 260.217 215.383 262.757L210.514 265.297C200.814 270.35 191.145 275.484 181.382 280.416L180.663 280.78C177.291 282.47 173.667 284.183 169.926 285.464C169.858 286.413 169.899 287.334 169.98 288.337L169.998 288.552C170.11 289.739 170.348 291.223 169.4 292.068C168.906 292.504 168.022 292.508 167.685 291.848C167.074 290.647 167.622 288.755 167.819 287.451C167.882 286.988 167.968 286.511 168.089 286.048C163.8 287.325 159.377 287.946 155.011 287.231C150.763 286.529 147.467 283.855 144.817 280.577C142.02 277.121 140.019 273.091 138.956 268.772C137.739 263.859 137.658 258.783 137.69 253.753C137.717 248.39 137.914 243.004 138.57 237.681C137.843 237.485 137.091 237.396 136.338 237.416C136.156 237.684 135.903 237.896 135.606 238.027C135.31 238.158 134.984 238.203 134.663 238.158C133.298 239.659 136.756 241.197 137.861 241.579C138.242 241.714 138.202 242.334 137.762 242.316L137.483 242.303C135.777 242.213 134.012 241.921 133.01 240.334C132.638 239.747 132.474 239.051 132.546 238.359C132.618 237.667 132.92 237.02 133.406 236.522C134.034 230.534 135.552 224.703 136.962 218.863C138.341 213.132 139.881 207.44 141.512 201.771L142.239 199.236C144.808 190.348 147.489 181.393 151.028 172.861C152.797 168.604 154.832 164.418 157.589 160.705C160.147 157.271 163.217 154.25 166.692 151.75C173.204 147.03 180.839 144.18 188.338 141.464L188.68 141.343C192.569 139.936 196.449 138.511 200.289 136.987C203.688 135.638 206.949 133.93 210.33 132.563C210.222 132.363 210.117 132.161 210.016 131.956L209.949 132.01C209.938 132.02 209.928 132.029 209.917 132.037C209.576 132.271 209.077 132.154 208.794 131.889C208.004 131.143 208.274 130.315 208.799 129.538L208.871 129.439C209.518 128.535 210.092 127.578 210.69 126.638L211.062 126.054C212.064 124.48 213.115 122.907 214.453 121.612C215.068 121.01 215.746 120.56 216.465 120.228C216.402 120.093 216.941 119.832 217.094 119.967C219.366 119.135 221.98 119.306 224.459 119.535M313.747 255.974L310.59 256.333C307.114 256.729 303.633 257.111 300.158 257.489L292.604 258.311C292.581 258.743 292.532 259.161 292.523 259.489C292.474 261.166 292.433 262.843 292.402 264.52C292.33 267.882 292.406 271.245 292.626 274.603C292.827 277.856 293.14 281.1 293.565 284.331L293.655 284.979L293.704 285.32C294.063 285.352 294.418 285.522 294.71 285.873C295.348 286.637 297.661 285.896 298.568 285.572C300.05 285.041 301.451 284.151 302.744 283.257C304.002 282.38 305.138 281.36 306.229 280.285L307.123 279.404C308.012 278.518 308.901 277.579 309.445 276.469C310.181 274.967 310.276 273.119 310.496 271.479C310.761 269.46 311.079 267.446 311.412 265.441M222.025 234.809L221.697 234.894C209.787 238.055 197.9 241.314 185.958 244.339C180.048 245.832 174.111 247.221 168.192 248.691L167.236 248.929C162.565 250.107 157.845 251.528 154.27 254.913C154.136 255.039 153.947 254.845 154.068 254.715C157.921 250.615 163.4 248.88 168.664 247.374L171.583 246.547C164.429 243.998 157.158 241.777 149.726 240.194C147.808 239.79 145.872 239.489 143.959 239.079C142.625 238.792 141.323 238.378 140.003 238.037L138.961 237.776L138.947 241.058C138.896 245.706 138.973 250.354 139.176 254.998L139.221 255.861C139.5 261.031 139.931 266.309 141.768 271.186C143.259 275.151 145.634 278.883 148.742 281.769C150.314 283.23 152.007 284.367 154.1 284.929C156.04 285.451 158.074 285.509 160.073 285.37C169.638 284.704 178.162 279.503 186.479 275.201C200.076 268.155 213.68 261.124 227.293 254.108C226.92 253.854 226.574 253.563 226.26 253.24C224.436 251.352 223.475 248.772 222.842 246.272C222.155 243.571 221.779 240.801 221.719 238.014M239.342 256.823C239.369 256.808 239.399 256.799 239.431 256.799C239.462 256.799 239.493 256.807 239.52 256.822C239.547 256.838 239.57 256.86 239.586 256.887C239.602 256.914 239.611 256.945 239.611 256.976C239.652 258.015 239.072 259.04 238.646 259.979L238.601 260.078C238.08 261.238 237.509 262.384 236.917 263.508C235.735 265.76 234.509 267.986 233.234 270.184C230.656 274.598 227.796 278.829 224.409 282.677C223.646 283.544 222.388 282.43 222.882 281.495C225.245 276.986 228.002 272.728 230.836 268.507C232.255 266.394 233.674 264.281 235.111 262.177C235.709 261.296 236.315 260.424 236.935 259.561L237.312 259.048M380.54 171.679C355.149 172.422 329.854 175.136 304.882 179.797L303.512 180.058C301.231 180.49 298.438 180.67 296.408 181.888C294.265 183.174 293.686 185.862 292.972 188.078C288.829 201.042 285.14 214.147 281.911 227.369C280.631 232.611 279.499 237.879 278.305 243.143C277.236 247.804 276.085 252.446 274.851 257.066C275.017 256.94 275.209 256.852 275.413 256.81C281.484 255.52 287.682 254.958 293.843 254.247L294.441 254.175C300.813 253.425 307.186 252.683 313.563 251.964L355.795 247.216C358.283 246.938 360.951 246.897 363.376 246.232C367.499 245.094 368.464 240.487 369.156 236.818L369.174 236.706C371.258 225.624 372.919 214.444 374.864 203.331M275.839 244.182C274.196 244.074 271.955 242.573 270.711 242.68C271.362 243.777 271.654 245.027 271.281 246.362C270.235 250.076 265.497 248.151 263.215 247.019C261.347 246.088 259.537 244.951 257.467 244.515C255.123 244.02 253.533 244.951 251.552 246.03C249.918 246.917 248.154 247.539 246.325 247.873C245.355 248.048 244.439 248.066 243.518 247.999C243.459 248.046 243.396 248.088 243.33 248.124L242.84 248.376C245.041 248.48 247.282 249.158 249.325 249.779C251.445 250.422 253.528 251.195 255.599 251.991L257.633 252.773C262.658 254.697 267.859 256.522 273.297 256.509C273.688 256.509 274.007 256.616 274.258 256.792M266.664 232.548C268.281 232.35 269.777 232.561 271.074 233.613C272.633 234.885 273.679 236.994 275.925 237.133C276.58 237.178 276.733 238.095 276.082 238.288C274.411 238.783 273.059 237.879 271.923 236.701L271.16 235.906C270.033 234.737 268.995 233.838 267.086 233.91C265.043 233.986 263 234.454 260.965 234.696C258.666 234.966 256.367 235.2 254.058 235.402C253.951 235.411 253.933 235.24 254.031 235.218L256.618 234.575M265.102 225.926L265.371 225.899C267.72 225.674 269.871 225.66 271.973 226.928L272.377 227.171C274.267 228.322 276.329 229.675 277.514 231.541C277.707 231.846 277.389 232.206 277.065 232.125C274.788 231.581 273.122 229.909 271.209 228.663C269.062 227.256 266.839 227.49 264.392 227.706C262.021 227.917 259.65 228.209 257.301 228.605C255.096 228.974 252.882 229.558 250.654 229.747C250.398 229.742 250.25 229.36 250.511 229.23C252.774 228.102 255.397 227.567 257.853 227.05M184.562 161.973C184.562 161.788 184.822 161.717 184.912 161.878C186.443 164.571 187.247 167.871 188.055 170.838C188.913 173.94 189.605 177.082 190.22 180.242C191.478 186.644 192.142 193.01 192.192 199.537C192.192 200.468 190.678 200.715 190.53 199.762C189.542 193.414 188.599 187.062 187.606 180.715C187.108 177.523 186.529 174.344 185.967 171.162M199.709 166.666C199.602 166.293 200.141 166.172 200.28 166.509C203.352 174.043 204.389 182.589 202.417 190.542C202.117 191.755 200.334 191.229 200.563 190.029M239.328 159.963C239.31 159.685 239.674 159.644 239.809 159.833C241.264 161.883 241.866 164.63 244.421 165.691C245.696 166.217 247.129 166.127 248.256 167.021C249.006 167.615 249.585 168.559 249.02 169.467C248.84 169.759 248.328 169.903 248.076 169.588C247.717 169.125 247.529 168.568 247.039 168.222C246.347 167.732 245.413 167.705 244.618 167.471C243.604 167.188 242.683 166.638 241.951 165.879M263.642 125.771C263.79 125.694 263.934 125.744 264.028 125.869C264.163 126.054 264.149 126.238 263.983 126.364C264.208 126.822 264.468 127.969 264.509 128.135C264.661 128.81 264.823 129.484 264.994 130.158C265.34 131.511 265.64 132.878 265.982 134.236C266.377 135.769 266.84 137.284 267.369 138.776L267.423 138.92L267.437 138.897C267.536 138.74 267.742 138.852 267.715 139.014L267.639 139.464L267.688 139.599C268.003 140.453 268.227 141.347 267.643 142.098C267.467 142.356 267.196 142.534 266.889 142.593C266.408 144.171 265.811 145.717 265.169 147.201L264.98 147.637C264.037 149.799 263.031 151.939 261.527 153.782C259.888 155.796 257.629 157.167 256.201 159.374C255.557 160.391 255.051 161.488 254.696 162.638L254.557 163.079C254.287 163.897 253.982 164.693 253.21 165.174C253.081 165.246 252.933 165.274 252.787 165.255C252.642 165.235 252.506 165.169 252.401 165.066C250.825 163.402 252.473 160.287 253.425 158.673C254.745 156.425 256.659 154.987 258.576 153.296C260.642 151.471 261.958 149.026 263.229 146.621C264.01 145.146 264.765 143.64 265.555 142.161C264.729 141.428 264.464 139.972 264.181 138.96L264.158 138.87C263.687 137.249 263.33 135.597 263.09 133.925C262.863 132.336 262.777 130.729 262.834 129.124L262.852 128.715M266.718 133.404C266.539 133.152 266.839 132.864 267.091 132.918C268.618 133.233 270.109 134.159 271.479 134.905L271.627 134.986C272.718 135.575 273.818 136.299 274.393 137.445C275.022 138.691 274.968 140.125 274.883 141.478L274.874 141.604C274.77 143.227 274.752 144.917 274.411 146.508C274.232 147.326 273.495 147.556 272.862 147.362C272.112 149.736 270.001 151.485 268.461 153.355C266.494 155.742 266.862 158.965 267.069 161.842C267.149 163.007 265.703 163.339 264.958 162.715L263.238 161.289C262.707 160.845 262.179 160.399 261.652 159.95L261.293 159.635C261.136 159.491 260.435 158.709 260.229 158.673C259.735 158.597 258.554 159.905 258.15 160.314L258.1 160.368C257.337 161.114 256.65 161.914 256.012 162.764C255.895 162.921 255.666 162.791 255.747 162.611C256.322 161.384 256.986 160.211 257.781 159.109L257.939 158.893C258.464 158.183 259.174 156.929 260.103 156.722C261.235 156.466 262.371 157.603 263.197 158.233L263.247 158.273C263.642 158.57 264.028 158.866 264.414 159.172C264.378 157.028 264.648 154.865 265.753 153.022C266.53 151.719 267.697 150.757 268.699 149.637C269.812 148.392 270.392 146.863 271.398 145.564C271.522 145.408 271.703 145.306 271.901 145.281C271.941 144.238 272.094 143.186 272.215 142.152L272.247 141.846C272.368 140.723 272.651 139.356 272.103 138.309C271.582 137.319 270.396 136.618 269.512 135.944L268.793 135.386M217.166 121.558C216.707 121.824 216.276 122.152 215.886 122.565C214.66 123.869 213.779 125.487 212.926 127.047C212.468 127.888 212.028 128.733 211.561 129.574L210.941 130.653C210.847 130.823 210.559 131.147 210.416 131.354C210.573 131.579 210.739 131.795 210.905 132.01C210.968 132.096 215.369 136.888 216.905 138.767C219.254 141.644 221.351 144.679 223.147 147.924C224.908 151.107 226.246 154.479 227.876 157.725C228.689 159.343 229.601 160.961 230.76 162.364L230.899 162.526C231.343 161.33 232.48 160.049 233.036 159.311L233.086 159.244C234.352 157.536 235.686 155.886 237.051 154.259C238.295 152.775 239.575 151.327 240.882 149.898L241.376 149.363C242.288 148.378 243.442 146.908 244.78 146.203C244.632 145.939 244.465 145.687 244.282 145.447C243.029 143.811 241.259 142.629 239.521 141.559L238.385 140.871C234.119 138.273 229.924 135.553 226.224 132.177C224.266 130.392 222.335 128.522 220.691 126.436L220.107 125.703M224.279 120.268C222.281 120.439 220.125 120.398 218.279 121.05C219.923 122.597 221.481 124.274 223.085 125.847C223.224 124.782 223.516 123.73 223.763 122.691" fill="#2B283A"/>
<path d="M343.746 205.736L335.492 206.483C335.016 206.526 334.576 206.757 334.269 207.124C333.963 207.492 333.815 207.966 333.857 208.443L333.902 208.901C333.992 209.895 334.868 210.628 335.86 210.538L344.114 209.791C344.591 209.748 345.03 209.517 345.337 209.15C345.643 208.782 345.791 208.308 345.749 207.831L345.704 207.373C345.661 206.896 345.43 206.456 345.063 206.149C344.696 205.842 344.222 205.694 343.746 205.736ZM339.718 210.938L335.689 211.302C335.485 211.32 335.286 211.378 335.103 211.473C334.921 211.569 334.76 211.699 334.628 211.857C334.496 212.015 334.396 212.197 334.335 212.393C334.274 212.59 334.252 212.796 334.27 213.001L334.306 213.401C334.344 213.814 334.544 214.196 334.862 214.461C335.18 214.727 335.591 214.855 336.004 214.817L340.037 214.453C340.241 214.435 340.44 214.377 340.623 214.282C340.805 214.186 340.966 214.056 341.098 213.898C341.23 213.74 341.33 213.558 341.391 213.362C341.452 213.165 341.474 212.959 341.456 212.754L341.42 212.354C341.401 212.149 341.342 211.95 341.247 211.767C341.151 211.585 341.02 211.424 340.862 211.292C340.704 211.161 340.522 211.062 340.325 211.001C340.129 210.94 339.922 210.919 339.718 210.938ZM339.866 215.213L331.612 215.959C331.375 215.98 331.145 216.046 330.935 216.156C330.724 216.266 330.537 216.416 330.385 216.598C330.233 216.78 330.118 216.991 330.047 217.217C329.976 217.444 329.951 217.683 329.972 217.919L330.017 218.378C330.107 219.371 330.983 220.104 331.975 220.014L340.23 219.268C340.466 219.247 340.695 219.18 340.905 219.07C341.115 218.96 341.302 218.81 341.453 218.627C341.605 218.445 341.72 218.235 341.79 218.009C341.861 217.782 341.886 217.544 341.864 217.308L341.819 216.849C341.776 216.373 341.546 215.934 341.18 215.627C340.814 215.321 340.342 215.172 339.866 215.213ZM326.752 216.4L326.232 216.445C325.996 216.466 325.766 216.533 325.556 216.643C325.346 216.753 325.16 216.903 325.008 217.085C324.856 217.267 324.741 217.477 324.671 217.704C324.6 217.93 324.575 218.169 324.597 218.405L324.642 218.868C324.732 219.857 325.607 220.59 326.6 220.5L327.121 220.455C327.357 220.434 327.586 220.366 327.796 220.257C328.006 220.147 328.193 219.996 328.344 219.814C328.496 219.632 328.611 219.422 328.681 219.195C328.752 218.969 328.777 218.731 328.755 218.495L328.711 218.036C328.667 217.559 328.437 217.119 328.07 216.813C327.703 216.506 327.229 216.357 326.752 216.4Z" fill="#2B283A"/>
<path fill-rule="evenodd" clip-rule="evenodd" d="M291.8 63.0899C290.839 55.4071 287.821 47.2567 284.65 40.0954C277.514 24.9546 261.181 22.8732 246.54 19.7488C232.089 17.6449 216.788 15.7388 202.556 19.9466C194.558 21.9111 191.432 31.4551 192.694 38.994C193.413 43.6873 195.546 48.1334 197.365 52.4805C200.98 61.422 203.275 70.9884 203.279 80.6627C203.032 86.9834 202.139 94.2032 209.387 96.8825C216.29 100.317 216.873 109.641 225.509 114.927C229.008 122.017 238.524 122.642 245.373 124.287C249.702 125.119 254.081 125.726 258.468 126.121C271.178 127.758 281.349 124.067 288.005 112.72C292.455 105.811 295.774 97.84 294.952 89.4694C294.135 80.6582 292.779 71.892 291.8 63.0899Z" fill="white"/>
<path fill-rule="evenodd" clip-rule="evenodd" d="M246.648 1.35321C247.371 0.526041 248.489 0.813762 249.168 1.46111C249.612 1.59598 250.039 1.78478 250.443 2.04552C251.355 1.92414 252.316 1.92414 253.209 1.9556C253.429 1.83872 253.658 1.73084 253.914 1.63193C255.724 0.971096 257.328 1.30826 258.652 2.19836C258.955 1.88982 259.317 1.64703 259.718 1.48517C260.118 1.32332 260.547 1.24588 260.979 1.25769C261.411 1.26951 261.835 1.37032 262.226 1.55384C262.617 1.73735 262.966 1.99962 263.251 2.32424C263.543 1.89981 263.928 1.54736 264.376 1.29348C264.824 1.03961 265.324 0.890944 265.838 0.858705C267.41 0.746318 268.923 1.38018 270.176 2.3602C270.524 1.94786 270.957 1.61583 271.446 1.38691C271.934 1.15799 272.466 1.03761 273.005 1.03404C273.737 0.899171 274.51 0.953114 275.206 1.1644C276.216 1.4701 277.101 2.04103 277.811 2.78278C278.924 1.71286 280.294 0.939621 281.87 1.05201C283.914 1.20036 285.602 2.70636 286.393 4.55851C287.771 5.11145 289.047 5.90266 290.116 7.03103L290.282 7.21085C290.857 7.42663 291.396 7.72783 291.876 8.12343C293.381 9.38217 293.717 11.2029 293.223 12.9831C293.291 13.2708 293.349 13.563 293.403 13.8507C294.818 14.0665 296.098 14.8847 296.83 16.2153C297.827 18.0405 297.629 20.4411 296.551 22.1853C296.086 22.9185 295.505 23.5714 294.831 24.1184C295.581 25.8267 295.222 27.8631 294.014 29.2433C293.715 29.7184 293.358 30.1535 292.949 30.538C293.162 31.4016 293.086 32.3109 292.735 33.1279C292.385 33.9449 291.777 34.625 291.005 35.0649L290.87 35.4066L290.798 35.5729L290.74 35.7887C290.698 36.4435 290.472 37.0731 290.089 37.6049C289.253 38.7917 288.216 39.5649 287.664 40.9495L287.61 41.0979C287.376 41.7497 286.613 42.2128 285.962 42.0105C289.572 49.437 291.463 57.6997 292.761 65.8006C293.407 69.8376 293.91 73.8925 294.315 77.961L294.71 82.0159C295.06 85.6123 295.374 89.2312 295.374 92.8455C295.379 101.018 293.044 108.885 288.036 115.39C283.298 121.54 276.594 126 269.022 127.753C261.203 129.56 252.028 128.85 245.018 124.705C242.952 123.487 244.762 120.556 246.864 121.536C250.847 123.392 254.893 124.773 259.308 125.083C263.608 125.395 267.926 124.834 272.004 123.433C278.754 121.095 284.498 116.204 288.194 110.113C290.021 107.123 291.318 103.839 292.029 100.407C292.9 96.1182 292.77 91.6812 292.451 87.3341L292.428 87.0374C291.795 78.6622 290.96 70.2332 289.608 61.9435C288.402 54.625 286.59 47.4194 284.192 40.4011C283.264 39.581 282.221 38.8996 281.098 38.3781C272.914 38.032 264.718 38.14 256.546 38.7018C249.576 39.1873 242.638 40.01 235.753 41.2103L235.017 41.3406C233.49 41.6104 231.801 41.7677 230.364 42.3791C229.134 42.9096 228.635 43.9256 228.325 45.1753C227.544 48.3356 227.427 51.7972 227.292 55.0384C227.162 58.2033 227.454 61.3996 227.202 64.5554C226.987 67.1987 226.309 69.905 224.355 71.8156C223.336 72.8136 222.078 73.3621 220.897 74.1218C220.134 74.6118 219.81 75.1153 219.909 76.0234C220.12 78.0104 221.719 80.5144 219.927 82.2137C219.613 82.5104 219.065 82.5509 218.755 82.2137C218.014 81.4045 216.99 80.7931 216.114 80.1458C216.033 80.0987 215.974 80.0213 215.95 79.9307C215.926 79.8401 215.939 79.7436 215.986 79.6625C216.034 79.5814 216.111 79.5224 216.201 79.4984C216.292 79.4743 216.388 79.4873 216.469 79.5344C217.017 79.7816 217.574 80.0738 218.149 80.3256C216.882 79.2826 215.091 78.7746 213.595 78.4689C212.828 78.3175 212.043 78.2766 211.264 78.3476C209.946 78.9697 208.597 79.5249 207.222 80.0109C204.564 82.1777 203.297 85.7067 203.85 89.1592C204.151 91.0653 205.031 93.1333 206.679 94.2481C208.642 95.5653 211.264 94.9989 213.379 95.9789C215.364 96.8915 216.568 98.7391 217.471 100.654L217.848 101.45C218.688 103.217 219.55 104.929 220.695 106.539C222.02 108.395 223.641 110.068 225.411 111.502C226.268 112.194 227.185 112.819 228.128 113.39L228.388 113.543C229.345 114.105 230.032 114.64 230.095 115.831C230.117 116.245 229.857 116.622 229.52 116.838C228.069 117.76 226.628 116.609 225.424 115.804C224.116 114.935 222.879 113.964 221.724 112.9C219.522 110.867 217.654 108.5 216.186 105.887C215.077 103.909 214.444 101.122 212.692 99.5843C211.619 98.6447 210.106 98.6402 208.767 98.4694C207.523 98.3076 206.342 98.0468 205.237 97.4354C200.733 94.927 199.462 88.858 200.531 84.1647C200.711 83.3735 200.962 82.6048 201.276 81.863C199.601 82.1462 197.715 80.4065 198.398 78.6533C198.447 78.5184 198.51 78.397 198.564 78.2711C197.397 77.5027 196.548 76.3367 196.175 74.9894C195.971 74.266 195.925 73.507 196.04 72.7642C195.495 72.3996 195.06 71.8928 194.783 71.2986C193.874 70.9153 193.117 70.244 192.627 69.388C192.334 68.8817 192.175 68.3093 192.163 67.7244C192.151 67.1395 192.288 66.5612 192.56 66.0434C192.489 65.9147 192.422 65.7843 192.358 65.6523C190.53 64.4925 189.259 62.4965 189.403 60.2847C189.447 59.5519 189.627 58.8911 189.91 58.2932C189.886 58.2186 189.864 58.1437 189.843 58.0684C188.316 57.2862 187.058 56.0094 186.605 54.3012C186.156 52.5839 186.686 50.8756 187.745 49.5584C186.192 48.4211 185.257 46.8297 185.823 44.4246C186.057 43.449 186.519 42.5589 187.144 41.8082L187.13 41.7407L186.986 41.6284C185.069 40.1134 183.969 38.1803 185.145 35.8067C185.671 34.7368 186.425 33.9905 187.31 33.5005L187.355 33.3656C186.68 31.9773 186.533 30.3904 186.941 28.9016C187.297 27.6369 188.112 26.5513 189.227 25.8582C189.156 25.2737 189.164 24.6444 189.281 23.9701C189.474 22.8237 190.045 21.8257 190.871 21.1199C190.902 20.9671 190.938 20.8232 190.983 20.6704C191.266 19.7713 191.787 18.7822 192.393 18.0585C192.599 17.7929 192.862 17.5782 193.164 17.4309C193.465 17.2835 193.796 17.2076 194.131 17.2088C194.091 16.6514 194.118 16.085 194.235 15.514C194.585 13.7473 195.708 12.084 197.369 11.3287C198.027 11.0345 198.751 10.9227 199.467 11.005C199.756 10.3823 200.196 9.84213 200.748 9.43377C201.299 9.0254 201.944 8.76191 202.624 8.66738C203.176 8.58646 203.688 8.59096 204.155 8.66289C204.425 8.53701 204.699 8.42462 204.99 8.32572C205.184 8.25379 205.377 8.19086 205.57 8.13242C206.234 7.30293 207.104 6.66269 208.094 6.27579C209.252 5.82174 210.438 5.87119 211.484 6.24881L211.817 6.17689C212.097 5.68869 212.476 5.26477 212.93 4.93256C213.384 4.60035 213.903 4.36725 214.453 4.24832C215.908 3.88868 217.403 4.39217 218.544 5.30925H218.562C219.159 3.9651 220.183 3.03003 221.899 3.09747C222.961 3.17013 223.955 3.64612 224.679 4.42814C225.092 4.37419 225.505 4.32923 225.923 4.27978C226.363 3.7673 226.852 3.28178 227.391 2.85021C228.276 2.13992 229.43 2.19836 230.081 3.19636C230.221 3.41378 230.355 3.63411 230.485 3.8572L231.083 3.81225C231.416 3.32293 231.859 2.919 232.377 2.63316C232.895 2.34731 233.473 2.18758 234.065 2.1669C235.268 2.12194 236.13 2.70636 236.782 3.53802L238.385 3.50656C239.014 2.78278 239.746 2.14443 240.585 1.61846C240.918 1.42853 241.304 1.35211 241.684 1.40077C242.064 1.44942 242.417 1.62051 242.692 1.88817C243.042 2.2568 243.37 2.63893 243.675 3.03453C244.457 2.15341 245.516 1.57349 246.648 1.35321ZM208.565 83.6837C209.778 82.9959 211.399 83.7422 212.571 84.3266C213.995 85.0459 215.409 86.1158 216.281 87.4644C217.471 89.3031 214.677 90.7866 213.429 89.1368C212.661 88.1253 212.046 87.1048 211.116 86.2147C210.263 85.4055 209.028 84.857 208.543 83.7871C208.525 83.7467 208.529 83.7062 208.565 83.6837ZM209.418 39.1289L209.436 39.0614C209.782 38.1174 208.282 37.7128 207.941 38.6479C207.677 39.318 207.684 40.0643 207.958 40.73C208.233 41.3957 208.755 41.9288 209.414 42.2173C209.8 42.3881 210.245 42.3252 210.478 41.9385C210.671 41.6104 210.582 41.0394 210.2 40.8731C209.414 40.527 209.154 39.9201 209.418 39.1289ZM196.494 36.4945C197.248 35.8292 196.143 34.7323 195.398 35.3931C194.702 36.009 194.185 36.8496 194.32 37.8117C194.455 38.7917 195.196 39.484 196.004 39.974C196.857 40.4955 197.639 39.1513 196.786 38.6344L196.691 38.5714C196.332 38.3466 195.91 38.0454 195.851 37.6049C195.789 37.1374 196.179 36.7732 196.494 36.4945ZM200.756 24.7837L200.809 24.7388C201.618 24.1679 200.841 22.8147 200.024 23.3991C199.278 23.9341 198.676 24.6309 198.613 25.5884C198.555 26.519 199.027 27.3237 199.646 27.98C200.333 28.7083 201.429 27.6069 200.742 26.8831C200.073 26.1728 199.943 25.3996 200.756 24.7837Z" fill="#2B283A"/>
<path fill-rule="evenodd" clip-rule="evenodd" d="M293.583 99.1392C293.259 98.1772 291.607 98.2626 291.71 99.391C291.827 100.686 291.387 102.124 290.147 102.754C288.854 103.41 287.399 102.821 286.608 101.693C285.926 100.713 285.45 99.6472 284.587 98.7931C283.784 97.9952 282.811 97.3896 281.74 97.0218C280.926 96.7482 280.061 96.6577 279.207 96.7566C277.124 96.2846 274.707 97.359 273.405 98.9864C273.324 99.0916 273.246 99.1996 273.172 99.3101C273.041 99.1321 272.904 98.9582 272.763 98.7886C272.395 98.348 271.937 98.2491 271.523 98.3705C270.33 97.4945 268.906 96.989 267.428 96.9171C265.95 96.8452 264.483 97.2099 263.211 97.9659C261.069 99.2336 259.304 101.104 256.672 101.248C254.588 101.364 252.316 100.169 252.172 97.876C252.091 96.6802 250.466 95.6822 249.549 96.7881C247.627 99.1258 247.246 102.219 248.305 105.042C249.428 108.018 251.719 110.113 254.611 111.345C257.732 112.675 261.392 113.138 264.778 113.035C268.146 112.927 271.214 111.628 273.243 108.867C273.486 108.539 273.702 108.202 273.886 107.865C275.862 110.382 278.951 111.439 282.104 111.515C285.396 111.592 289.289 111.012 291.62 108.449C293.866 105.977 294.638 102.304 293.583 99.1392Z" fill="#2B283A"/>
<path fill-rule="evenodd" clip-rule="evenodd" d="M265.218 111.349C263.343 110.583 261.71 109.325 260.489 107.708C260.301 107.471 260.165 107.197 260.088 106.905C260.012 106.612 259.997 106.307 260.045 106.008C260.154 105.4 260.49 104.857 260.984 104.486C261.478 104.116 262.094 103.947 262.708 104.012C263.224 104.093 263.741 104.381 264.149 104.97L264.239 105.087C264.958 106.062 265.901 106.862 266.969 107.379C268.002 107.874 269.152 108.108 270.347 107.973C272.624 107.712 274.191 106.485 275.857 104.813C276.064 104.606 276.27 104.385 276.477 104.165C276.599 103.978 276.781 103.838 276.993 103.77C277.224 103.695 277.472 103.698 277.701 103.776C277.93 103.855 278.128 104.005 278.264 104.206C278.401 104.406 278.463 104.648 278.439 104.889C278.287 106.62 277.379 108.162 276.095 109.375C274.667 110.724 272.772 111.655 270.993 111.983C269.031 112.342 267.028 112.086 265.218 111.349ZM271.918 84.6458C274.007 85.918 277.191 88.876 274.941 92.0229C272.3 94.7966 268.492 91.6183 266.615 90.1797C264.877 89.0648 262.919 91.933 264.535 93.2367C278.093 103.266 283.595 84.9829 272.978 83.1577C271.806 82.9554 271.371 84.2546 271.918 84.6458ZM247.623 72.9754C247.852 70.1118 252.217 69.4645 252.652 72.2966C253.039 74.8366 252.581 77.1653 251.44 79.4535C250.344 81.6338 247.6 80.6178 247.389 78.6263C247.111 75.9649 247.479 74.7602 247.623 72.9754ZM280.828 71.7077C281.435 70.912 282.31 70.3681 283.366 70.6738C286.653 71.6358 285.683 76.3021 284.533 78.5723C283.905 79.8041 281.875 80.1188 280.959 79.0309C279.463 77.2596 278.749 73.7262 280.649 71.9819C280.703 71.8881 280.763 71.7935 280.828 71.7077ZM251.391 60.4465L251.911 60.3566C253.515 60.0779 255.513 59.8126 256.649 61.1028C257.251 61.7862 257.458 63.0584 256.649 63.7102C255.226 64.8656 253.649 64.4205 251.943 64.5194C250.533 64.6003 249.181 64.8341 247.829 65.2207C244.852 66.0704 242.431 67.6213 239.889 69.3206C239.557 69.5454 239.216 69.1183 239.377 68.8081C240.841 65.9355 243.684 63.5799 246.531 62.1413C248.049 61.3771 249.711 60.7387 251.391 60.4465ZM277.833 59.1608L278.228 59.2417C282.553 60.1453 288.171 61.9525 290.219 66.1962C290.3 66.7986 290.219 66.929 290.147 67.0099L290.125 67.0414C290.071 67.1088 290.026 67.2077 289.765 67.2931C288.858 67.0632 287.98 66.7314 287.147 66.3041L286.366 65.9175C285.467 65.4569 284.536 65.0603 283.581 64.7307C281.519 64.0562 279.395 63.5879 277.24 63.3326C276.781 63.2863 276.342 63.1188 275.969 62.8471C275.613 62.5818 275.36 62.2002 275.255 61.7682C275.171 61.497 275.148 61.2107 275.187 60.9295C275.225 60.6483 275.326 60.379 275.48 60.1408C275.709 59.749 276.061 59.4439 276.481 59.2732C276.91 59.1046 277.378 59.0655 277.828 59.1608H277.833Z" fill="#2B283A"/>
<path fill-rule="evenodd" clip-rule="evenodd" d="M90.4095 106.674C93.7014 105.761 97.4827 105.865 100.86 106.103C104.291 106.337 107.969 106.746 111.189 108.022C113.982 109.137 116.34 111.007 117.777 113.687C118.958 115.894 119.515 118.313 119.861 120.767C120.005 121.774 120.121 122.781 120.234 123.788L120.467 125.887C120.557 126.688 120.638 127.29 120.795 128.18C121.24 130.657 121.855 132.725 123.225 134.528C126.548 138.888 131.982 140.345 136.917 142.206C140.074 143.397 142.576 145.542 143.268 148.981C143.941 152.303 169.396 180.162 171.893 182.508L171.964 182.571C173.9 184.315 173.671 187.597 173.94 189.989C174.824 197.775 175.577 205.576 176.199 213.388C177.83 233.856 178.571 254.396 178.413 274.927L178.404 276.086C178.377 278.694 178.4 281.31 178.283 283.913C178.171 286.417 177.412 288.921 175.095 290.229C172.948 291.439 170.231 291.331 167.828 291.452L167.685 291.461C165.111 291.6 162.534 291.717 159.956 291.812C149.478 292.198 138.992 292.243 128.51 292.194C107.717 292.099 86.8976 291.641 66.1182 292.805C60.8234 293.102 43.9376 291.299 38.6608 291.812C33.613 292.302 37.9422 294.779 34.8255 294.617C24.5728 294.077 14.85 291.789 5.02834 289.038C4.41544 288.859 3.87585 288.489 3.48871 287.981C3.10157 287.473 2.88726 286.854 2.8772 286.215C3.22154 259.484 4.35524 232.769 6.27682 206.105C6.67202 200.643 7.10314 195.181 7.56122 189.728L7.76331 187.39C8.02378 184.378 8.17198 181.308 8.76478 178.336C9.3486 175.396 10.6824 172.843 12.609 170.568C14.3425 168.523 33.9408 152.523 38.6563 149.493C43.1786 146.594 47.921 144.148 52.5601 141.46C54.4912 140.345 56.3415 140.745 57.9941 139.374C58.8609 138.65 71.4669 133.777 74.871 132.168L74.9698 132.123C77.5745 130.873 79.9726 129.515 81.769 127.357C82.3753 126.634 83.5564 122.071 83.5609 120.614C83.5609 118.007 83.3678 115.265 84.1537 112.747C85.0923 109.726 87.3557 107.519 90.4095 106.674ZM95.9962 173.809L75.8455 213.046H88.9455L79.5595 234.849H100.173L92.8526 265.383L134.694 213.046H118.994L134.694 192.439H123.804L134.694 174.987L95.9827 173.809H95.9962Z" fill="white"/>
<path fill-rule="evenodd" clip-rule="evenodd" d="M163.674 195.873L163.535 196.013C163.587 195.938 163.633 195.86 163.674 195.779V195.873ZM124.513 184.441C122.708 186.752 120.795 191.454 119.035 193.81L118.289 194.826C117.562 195.846 118.536 197.411 119.735 197.343C122.132 197.208 124.527 197.046 126.921 196.858C122.003 202.338 117.916 209.148 113.403 214.957C113.093 215.343 112.792 215.734 112.491 216.126C111.346 217.618 112.491 218.297 114.059 217.892L115.024 217.645L121.841 215.901C123.099 215.577 124.361 215.181 125.636 214.93C126.157 214.831 126.66 214.912 127.154 214.939C126.916 215.298 126.584 215.955 126.516 216.058C124.332 219.455 122.099 222.819 119.816 226.15C113.866 234.674 107.448 242.815 101.089 251.029C99.4856 253.096 97.8599 255.142 96.2118 257.165L96.2297 257.129L100.689 248.448C103.518 242.95 106.316 237.434 109.168 231.95L109.617 231.096C110.21 229.958 109.235 228.776 108.018 229.014C102.081 230.183 96.2028 231.621 90.396 233.325C90.2695 233.454 90.1125 233.548 89.9397 233.599C89.7669 233.65 89.584 233.656 89.408 233.617L88.7075 233.824L88.923 233.388C88.685 233.181 88.5637 232.862 88.7209 232.462C92.1384 223.754 96.6216 215.503 102.068 207.899L101.412 207.912C95.4782 208.058 89.5856 208.945 83.8707 210.551C83.8438 210.021 84.1627 209.202 84.3378 208.807C85.0339 207.242 85.8333 205.714 86.5788 204.176L91.1595 194.686C92.655 191.598 94.137 188.496 95.5426 185.363L97.7521 180.427C98.3494 179.092 98.8255 177.738 99.324 176.367C100.779 176.799 119.52 176.889 124.073 177.208C125.192 177.284 126.31 177.356 127.428 177.419C128.322 177.469 129.575 177.667 130.19 176.857L130.424 177.055C128.403 179.474 126.458 181.955 124.513 184.441ZM51.3566 139.495L51.626 139.374C51.6754 139.437 51.7293 139.5 51.7922 139.563C51.9359 139.711 52.0796 139.873 52.2323 140.021L51.3566 139.495ZM182.316 277.102C182.146 273.534 181.961 269.966 181.759 266.399C181.383 259.424 180.932 252.455 180.407 245.49C179.298 231.374 178.265 217.272 176.604 203.214C175.903 197.321 174.928 191.468 173.954 185.619C174.075 185.502 174.205 185.394 174.331 185.282C174.196 186.882 176.37 187.898 177.448 186.302L177.686 185.934C178.615 184.428 180.767 177.028 180.618 176.403C180.349 175.27 179.599 174.268 179.015 173.274C178.503 172.405 177.985 171.538 177.461 170.676C176.419 168.946 175.335 167.242 174.21 165.565C171.875 162.103 169.315 158.776 166.306 155.872C163.185 152.86 159.61 150.388 155.914 148.14C154.135 147.068 152.308 146.078 150.439 145.173C148.598 144.278 146.582 143.285 144.601 142.777C144.489 142.75 144.377 142.907 144.476 142.988C145.001 143.406 145.553 143.797 146.115 144.175C144.61 143.636 143.044 143.286 141.453 143.132C138.399 142.062 135.31 141.078 132.274 139.958C129.283 138.857 126.341 137.621 124.356 135.013C122.659 132.779 121.585 130.05 120.764 127.389C119.856 124.458 119.493 121.41 118.657 118.479C118.59 118.241 118.204 118.209 118.15 118.479C117.553 121.558 117.579 125.02 117.921 128.131C118.28 131.39 119.196 134.591 121.195 137.243C123.516 140.327 126.665 142.04 130.208 143.411C133.064 144.517 135.956 145.641 138.884 146.634C138.501 146.887 138.111 147.131 137.717 147.367C136.131 148.311 134.483 149.147 132.795 149.902C129.714 151.273 126.467 152.303 123.207 153.139C117.13 154.686 110.902 155.472 104.637 155.576C92.0201 155.747 79.5149 153.194 67.9729 148.091C64.754 146.652 61.586 145.102 58.4747 143.442C57.5001 142.93 56.5166 142.408 55.5421 141.878L55.7891 141.855C57.9648 141.645 60.1172 141.239 62.2201 140.642C66.5313 139.428 70.663 137.526 74.7272 135.656C78.1673 134.074 81.7151 132.271 83.8168 128.971C84.9396 127.205 85.4605 125.132 85.8782 123.105C86.3452 120.848 86.8976 118.578 87.2389 116.303C87.3557 115.503 87.176 114.424 86.3228 114.046C86.0102 113.882 85.665 113.79 85.3123 113.777C84.8772 113.781 84.455 113.926 84.1081 114.189C83.7612 114.452 83.508 114.82 83.3857 115.238C82.8872 117.35 82.5818 119.522 82.1867 121.657C81.8453 123.5 81.5355 125.433 80.5385 127.052C78.8005 129.897 75.3874 131.349 72.4998 132.734C68.8442 134.487 65.1886 136.196 61.3893 137.621C59.7186 138.25 58.0166 138.816 56.2876 139.28C56.3299 139.073 56.3306 138.86 56.2897 138.653C56.2489 138.446 56.1672 138.25 56.0496 138.075C55.6319 137.522 55.1604 137.153 54.6215 136.731C54.3416 136.494 54.0103 136.325 53.6539 136.24C53.2975 136.154 52.926 136.152 52.5691 136.236C52.2636 136.17 51.9449 136.207 51.6619 136.339C50.6739 136.789 49.6949 137.248 48.7114 137.711C34.5875 144.355 20.8633 152.159 10.4668 164.05C8.96687 165.762 7.56571 167.565 6.24987 169.422C4.97445 171.229 3.38916 173.185 3.03887 175.423C3.00743 175.612 3.28138 175.693 3.32629 175.504C3.41162 175.158 3.52389 174.821 3.66311 174.493C3.3712 175.513 3.38916 176.597 3.79783 177.658C3.99748 178.23 4.32934 178.747 4.76637 179.166C5.2034 179.586 5.73324 179.896 6.31274 180.072C5.21131 185.056 4.37185 190.095 3.79783 195.168C2.93804 202.498 2.28212 209.851 1.83081 217.218C0.855669 231.939 0.502069 246.694 0.77096 261.445C0.894602 267.694 1.16413 273.94 1.57932 280.177C1.70956 282.227 1.60178 284.48 3.38467 285.558L3.45203 285.801C3.88765 287.312 5.81874 286.826 6.00287 285.455L6.00736 285.41C7.4669 284.295 7.24685 282.439 7.13907 280.658C7.02231 278.734 6.90105 276.815 6.79776 274.895C6.6037 271.213 6.43304 267.53 6.28579 263.845C5.99765 256.557 5.82847 249.264 5.77832 241.97C5.67054 227.387 6.51483 212.821 7.51181 198.278C7.92947 192.196 8.41898 186.136 8.56718 180.054C9.35309 179.649 9.5911 178.494 9.1959 177.716C18.4472 184.028 27.0338 191.571 33.9273 200.342C35.077 201.807 36.1773 203.313 37.2326 204.851C37.574 205.345 37.8973 205.871 38.2251 206.388C37.9108 207.836 37.6638 209.31 37.3404 210.695C36.6713 213.563 36.3928 216.539 36.0111 219.452C35.2587 225.381 34.6627 231.33 34.2237 237.29C33.2763 249.03 32.6772 260.796 32.4274 272.571C32.3061 279.238 32.1489 285.945 32.4453 292.607C32.2253 293.911 33.3974 295.183 34.6234 295.345C35.1318 295.415 35.6492 295.326 36.1055 295.091C36.5618 294.856 36.9349 294.487 37.1743 294.032C40.5245 294.451 43.96 294.639 47.2878 294.666C51.7742 294.698 56.2561 294.693 60.7381 294.599C69.7109 294.401 78.6748 294.172 87.6431 293.907C110.551 293.231 133.459 292.553 156.367 291.87C158.613 291.807 161.406 292.45 163.176 290.719C163.473 290.427 163.712 290.08 163.881 289.699C164.406 289.829 165.057 289.699 165.408 289.29C166.054 288.525 166.53 287.815 166.508 286.754C166.486 285.756 166.212 284.709 166.068 283.724C165.278 278.223 164.565 272.711 163.93 267.19C163.077 259.696 162.295 252.184 161.685 244.663C160.481 229.796 160.144 214.849 160.185 199.933C160.185 198.598 160.198 197.262 160.203 195.932C160.261 195.999 160.319 196.067 160.387 196.121L160.549 196.264C161.177 196.813 162.219 197.101 162.974 196.579C163.894 195.981 164.532 195.082 165.251 194.273C166.005 193.423 166.786 192.596 167.572 191.773C169.095 190.182 170.671 188.654 172.274 187.148L172.665 186.788C172.674 191.535 172.669 196.282 172.8 201.025C172.988 208.074 173.37 215.119 173.72 222.154C174.416 236.094 175.135 250.031 175.831 263.967C176.024 267.855 176.204 271.748 176.397 275.641C176.496 277.588 176.595 279.534 176.684 281.481L176.833 284.641C176.886 285.774 176.815 286.984 177.196 288.058C178.068 290.517 181.822 290.863 182.545 288.058C182.994 286.296 182.648 284.259 182.567 282.452L182.316 277.102Z" fill="#2B283A"/>
<path fill-rule="evenodd" clip-rule="evenodd" d="M112.231 11.9221C126.597 11.9221 144.592 28.3442 149.86 35.3347C154.288 41.2103 153.659 71.483 153.659 89.438C153.659 93.1962 151.966 100.304 151.351 103.895C149.097 117.058 139.28 128.099 119.847 128.099C104.021 128.099 91.8466 123.078 80.0714 110.234C77.3813 107.303 64.2634 117.791 61.5823 114.015C54.572 114.015 48.7114 48.3986 62.4715 28.7128C76.2317 9.03153 97.8599 11.9221 112.231 11.9221Z" fill="white"/>
<path fill-rule="evenodd" clip-rule="evenodd" d="M69.0462 16.539C77.3454 8.97306 88.4065 5.33172 99.5664 5.60144C105.346 5.74081 111.108 6.8422 116.565 8.7348C119.295 9.67885 121.94 10.9196 124.469 12.3177C125.376 12.8212 126.22 13.4101 127.028 14.0395L127.226 14.1968C129.4 14.9745 131.335 16.3772 133.091 18.018C136.62 17.7063 140.176 18.0881 143.559 19.1419C148.297 20.6569 152.685 23.4351 155.761 27.3776C159.354 31.9675 160.544 37.5374 160.117 43.2827L160.037 44.2627C159.619 49.3426 158.864 55.8701 154.706 59.2057C154.4 59.454 154.051 59.6444 153.677 59.7677C156.414 64.4157 158.499 69.418 159.875 74.6343C164.896 94.3335 161.034 114.878 154.993 133.867C154.499 135.431 152.137 136.47 150.933 134.941C148.787 132.208 145.67 130.122 142.163 129.731C139.998 129.493 137.847 129.929 135.804 128.944C134.958 128.528 134.226 127.912 133.67 127.151C130.207 128.468 126.514 129.072 122.811 128.926C116.762 128.679 110.295 126.58 106.132 121.976C105.839 121.674 105.623 121.305 105.504 120.901C105.385 120.497 105.367 120.07 105.45 119.657C105.97 119.472 106.509 119.333 107.057 119.248C112.339 122.363 118.159 124.444 124.41 124.579C128.021 124.651 131.551 124.148 134.479 121.882C135.108 121.396 135.691 120.852 136.23 120.273C142.36 116.321 146.676 109.618 148.733 102.434C150.642 95.7361 150.408 88.7591 149.752 81.89L149.402 78.2576C148.899 72.935 148.428 67.6033 148.297 62.2537H148.338C149.631 62.1683 149.64 60.1408 148.338 60.2217C144.97 60.4465 141.619 59.8891 138.26 60.1318C138.233 58.5404 138.116 56.9535 137.649 55.4205C137.384 54.5394 135.862 54.3686 135.7 55.4205C135.498 56.8157 135.392 58.2231 135.381 59.6328C130.352 59.5654 125.331 59.1383 120.301 59.3181C119.371 58.3246 119.079 56.5669 118.639 55.3396L118.451 54.8002C118.068 56.5589 117.52 58.2778 116.816 59.934L115.586 59.9385C108.589 59.97 101.448 60.1813 94.613 61.6378C94.1444 61.2352 93.8459 60.6697 93.7777 60.0554C93.2837 56.2882 92.5741 52.6198 91.3211 49.0324L91.1415 48.5244L91.0966 48.3896C90.1577 49.8857 89.0764 51.2874 87.8676 52.5749C87.1581 53.3391 86.4171 54.0719 85.6536 54.7822C84.9126 55.6048 84.1492 56.4185 83.4082 57.2457C83.6937 59.111 83.7465 61.0047 83.5653 62.8831C83.2662 65.9801 82.3888 68.9933 80.9786 71.7662L80.9337 72.0449C80.7181 73.3486 80.4172 74.6882 79.7032 75.6683C80.5924 76.6663 81.275 77.8575 81.6702 79.1747C82.025 80.3525 80.3993 81.3775 79.5595 80.411C78.9148 79.6688 78.1624 79.0278 77.3275 78.5094C77.2781 78.5768 77.1838 78.6128 77.076 78.5544C74.8036 77.2866 70.9414 77.6732 68.669 78.8645C65.8397 80.348 64.735 83.3825 65.0493 86.4619C65.3502 89.411 66.6391 92.85 69.1316 94.3605C70.2723 95.0528 71.1659 95.1113 72.3785 94.7786C72.7683 94.6424 73.1326 94.4418 73.4563 94.1852L73.6584 94.0233C74.4533 93.394 75.1988 92.9624 76.1374 92.9444C76.3616 92.8647 76.5995 92.8307 76.8371 92.8442C77.0746 92.8578 77.3071 92.9187 77.5209 93.0234C77.7346 93.128 77.9253 93.2744 78.0818 93.4538C78.2383 93.6333 78.3575 93.8422 78.4322 94.0683L78.4547 94.1357C78.6253 94.6527 78.9397 95.2956 78.8723 96.0823C78.7885 96.9194 78.4245 97.7036 77.8394 98.3076C77.7392 98.4169 77.6343 98.5219 77.5251 98.6223C87.423 109.353 88.694 126.081 83.6192 139.486C83.3992 140.075 83.1656 140.655 82.9186 141.231C82.0699 143.209 78.805 142.593 78.3918 140.637C78.0379 138.973 77.5865 137.331 77.0401 135.719L76.9053 135.332C76.6044 134.469 76.3215 133.602 76.0161 132.739L75.9892 132.64C75.9753 132.595 75.9619 132.55 75.9488 132.505L75.4368 133.629L73.874 137.018C73.1419 138.601 70.8201 137.738 70.7348 136.214V136.164C70.677 133.83 70.3177 131.514 69.666 129.273L69.4594 129.524C66.4146 133.301 62.8398 136.834 57.9357 137.706C56.7097 137.922 55.3175 136.636 56.1618 135.391C56.5125 134.875 56.8479 134.349 57.1678 133.813C56.9036 133.688 56.6444 133.553 56.3909 133.408C54.555 132.337 52.9591 130.898 51.7023 129.183C48.9853 125.595 48.0153 121.082 47.7773 116.667C47.5213 111.996 47.9345 107.074 49.2054 102.574C49.7578 100.623 50.5033 98.7526 51.3655 96.9409L51.1859 96.4554C48.4106 88.5564 46.9304 80.2599 46.8028 71.8875C46.6546 61.8895 48.3746 51.7297 52.0032 42.4061C55.7487 32.7902 61.3803 23.525 69.0417 16.5435L69.0462 16.539ZM64.3802 103.963C63.6931 102.879 61.9731 103.855 62.6108 104.952L62.6332 104.988C63.7245 106.71 64.2365 108.67 64.8652 110.589C65.2694 111.821 67.2229 111.295 66.8143 110.05L66.6795 109.632C66.0553 107.685 65.4849 105.703 64.3802 103.963ZM70.3711 83.2522L70.8246 83.0274C72.2662 82.3396 73.5327 81.872 75.2347 82.4744C77.5116 83.2791 79.9547 85.8371 78.4143 88.3186C78.1478 88.7496 77.7517 89.0849 77.2829 89.2764C76.814 89.4678 76.2966 89.5055 75.8051 89.384C74.0536 89.0199 73.6045 87.4419 72.7153 86.1472L72.5626 85.9225C72.0237 85.1447 71.3366 84.0568 70.4339 83.7512C70.2318 83.6792 70.1465 83.36 70.3711 83.2522ZM71.6555 30.5469L71.8037 30.4121C72.7827 29.5445 71.3456 28.1194 70.3666 28.9735C65.9116 32.9296 64.3622 39.1064 62.0494 44.3706C61.5329 45.5574 63.2754 46.5914 63.8008 45.3956C66.0014 40.3696 67.4699 34.3591 71.6555 30.5469ZM125.232 28.8162C124.069 28.2902 123.049 29.9895 124.172 30.5514L124.217 30.5694C128.151 32.3541 129.826 36.3911 131.429 40.1358C131.941 41.3361 133.684 40.3022 133.181 39.1154L132.889 38.441C131.214 34.5794 129.26 30.6459 125.236 28.8207L125.232 28.8162ZM131.407 26.3796C130.172 25.9481 129.642 27.9081 130.868 28.3352C134.205 29.504 136.495 32.0125 138.426 34.8806C139.149 35.9595 140.905 34.9435 140.173 33.8556C137.928 30.5245 135.269 27.7283 131.407 26.3796Z" fill="#2B283A"/>
<path fill-rule="evenodd" clip-rule="evenodd" d="M131.115 87.0418C133.163 88.2826 136.275 91.1777 134.079 94.2526C131.488 96.9679 127.765 93.857 125.932 92.4499C124.226 91.3575 122.317 94.1582 123.898 95.435C137.155 105.249 142.535 87.3655 132.152 85.5808C131.007 85.383 130.576 86.6597 131.115 87.0418ZM112.666 63.3731L113.174 63.2832L113.434 63.2382C114.957 62.9865 116.758 62.8201 117.808 64.0114C118.397 64.6858 118.599 65.9265 117.808 66.5694C116.416 67.6932 114.876 67.2572 113.205 67.3561C111.843 67.4332 110.493 67.6624 109.181 68.0394C106.271 68.8711 103.905 70.3861 101.421 72.0539C101.093 72.2697 100.761 71.8561 100.918 71.5504C102.351 68.7407 105.126 66.439 107.91 65.0319C109.397 64.2812 111.023 63.6608 112.666 63.3731ZM126.117 102.156C130.563 102.479 140.196 100.358 144.193 103.54C159.264 122.354 99.508 127.191 105.966 106.372C110.075 99.6472 119.528 102.349 126.117 102.156ZM125.353 113.516C124.257 113.426 122.924 114.298 122.6 114.968C122.277 115.642 122.403 117.063 122.412 117.306C124.335 117.498 126.271 117.531 128.2 117.404C127.697 115.75 127.679 113.763 125.353 113.516ZM134.227 116.294C133.922 114.24 132.449 113.75 131.263 114.06C130.042 114.374 129.332 115.777 129.404 117.027C129.408 117.108 129.359 117.184 129.328 117.252C130.982 117.056 132.62 116.736 134.227 116.294ZM120.597 113.889C119.906 112.833 118.249 112.325 117.189 112.509C115.46 112.877 115.253 115.071 115.253 115.521C116.847 116.132 118.545 116.537 120.166 116.856C120.49 116.923 120.817 116.977 121.145 117.036L121.163 116.766C121.208 116.195 121.235 114.851 120.597 113.889ZM140.187 113.714C138.413 110.971 134.595 112.931 134.91 115.934C135.251 115.827 135.588 115.714 135.925 115.597C137.317 115.112 138.844 114.536 140.187 113.714ZM126.211 104.251C123.822 104.035 121.859 104.107 120.305 104.399L120.256 104.916C120.085 106.723 119.861 108.494 120.808 109.223C121.576 109.807 124.132 109.753 125.843 109.326C126.269 109.223 126.817 105.478 126.211 104.251ZM129.902 104.035C129.521 105.815 129.341 107.973 130.109 108.616C130.917 109.29 133.536 109.2 134.218 108.751C134.816 108.355 134.802 106.539 134.577 104.498C133.253 104.188 130.949 104.035 129.907 104.035H129.902ZM119.246 104.417L118.464 104.421L118.024 104.43C116.859 104.428 115.696 104.54 114.553 104.763C112.285 109.663 120.57 110.508 119.29 104.597L119.246 104.417ZM135.633 104.534L135.619 104.813C135.548 106.188 135.592 108.004 136.356 108.49C137.479 109.209 139.589 109.074 140.73 105.739C140.353 104.75 136.342 104.606 135.633 104.534ZM113.65 75.3131C114.13 75.3131 114.588 75.4794 115.006 75.7806C115.455 76.1215 115.827 76.5535 116.097 77.0484C116.681 78.0689 117.054 79.4759 117.054 81.0359C117.054 82.5958 116.686 84.0029 116.097 85.0279C115.827 85.5227 115.455 85.9547 115.006 86.2956C114.615 86.5903 114.14 86.7525 113.65 86.7586C113.16 86.7525 112.685 86.5903 112.294 86.2956C111.843 85.9552 111.47 85.5232 111.198 85.0279C110.545 83.8003 110.218 82.426 110.246 81.0359C110.246 79.4804 110.614 78.0689 111.198 77.0484C111.47 76.5531 111.843 76.121 112.294 75.7806C112.685 75.4859 113.16 75.3192 113.65 75.3131ZM144.008 75.3131C144.484 75.3131 144.947 75.4794 145.365 75.7806C145.814 76.1216 146.185 76.5536 146.456 77.0484C147.04 78.0689 147.408 79.4759 147.408 81.0359C147.408 82.5958 147.044 84.0029 146.456 85.0279C146.184 85.5231 145.811 85.9551 145.36 86.2956C144.97 86.5894 144.497 86.7516 144.008 86.7586C143.519 86.7525 143.044 86.5903 142.652 86.2956C142.202 85.955 141.828 85.523 141.556 85.0279C140.904 83.8003 140.576 82.426 140.604 81.0359C140.604 79.4804 140.968 78.0689 141.556 77.0484C141.828 76.5532 142.202 76.1212 142.652 75.7806C143.044 75.4859 143.519 75.3192 144.008 75.3131ZM139.877 62.1143L140.263 62.1953L140.523 62.2492C144.713 63.1483 150.031 64.9285 151.993 68.9924C152.07 69.5859 151.989 69.7117 151.921 69.7926L151.899 69.8196C151.845 69.8915 151.805 69.9859 151.549 70.0669C150.662 69.8407 149.803 69.515 148.989 69.0958L148.225 68.7227C147.345 68.2727 146.434 67.8851 145.499 67.5629C143.484 66.9021 141.408 66.4428 139.302 66.1918C138.851 66.1481 138.42 65.9852 138.053 65.7197C137.705 65.4581 137.459 65.0829 137.357 64.6588C137.276 64.3945 137.252 64.1156 137.29 63.8415C137.327 63.5673 137.424 63.3047 137.573 63.0719C137.799 62.6893 138.144 62.3921 138.556 62.2267C138.976 62.0609 139.435 62.0218 139.877 62.1143Z" fill="#2B283A"/>
<path fill-rule="evenodd" clip-rule="evenodd" d="M112.231 11.9221C126.597 11.9221 144.592 28.3442 149.86 35.3347C154.288 41.2103 153.659 71.483 153.659 89.438C153.659 93.1962 151.966 100.304 151.351 103.895C149.097 117.058 139.28 128.099 119.847 128.099C104.021 128.099 91.8466 123.078 80.0714 110.234C77.3813 107.303 64.2634 117.791 61.5823 114.015C54.572 114.015 48.7114 48.3986 62.4715 28.7128C76.2317 9.03153 97.8599 11.9221 112.231 11.9221Z" fill="white"/>
<path fill-rule="evenodd" clip-rule="evenodd" d="M69.0462 16.539C77.3454 8.97306 88.4065 5.33172 99.5664 5.60144C105.346 5.74081 111.108 6.8422 116.565 8.7348C119.295 9.67885 121.94 10.9196 124.469 12.3177C125.376 12.8212 126.22 13.4101 127.028 14.0395L127.226 14.1968C129.4 14.9745 131.335 16.3772 133.091 18.018C136.62 17.7063 140.176 18.0881 143.559 19.1419C148.297 20.6569 152.685 23.4351 155.761 27.3776C159.354 31.9675 160.544 37.5374 160.117 43.2827L160.037 44.2627C159.619 49.3426 158.864 55.8701 154.706 59.2057C154.4 59.454 154.051 59.6444 153.677 59.7677C156.414 64.4157 158.499 69.418 159.875 74.6343C164.896 94.3335 161.034 114.878 154.993 133.867C154.499 135.431 152.137 136.47 150.933 134.941C148.787 132.208 145.67 130.122 142.163 129.731C139.998 129.493 137.847 129.929 135.804 128.944C134.958 128.528 134.226 127.912 133.67 127.151C130.207 128.468 126.514 129.072 122.811 128.926C116.762 128.679 110.295 126.58 106.132 121.976C105.839 121.674 105.623 121.305 105.504 120.901C105.385 120.497 105.367 120.07 105.45 119.657C105.97 119.472 106.509 119.333 107.057 119.248C112.339 122.363 118.159 124.444 124.41 124.579C128.021 124.651 131.551 124.148 134.479 121.882C135.108 121.396 135.691 120.852 136.23 120.273C142.36 116.321 146.676 109.618 148.733 102.434C150.642 95.7361 150.408 88.7591 149.752 81.89L149.402 78.2576C148.899 72.935 148.428 67.6033 148.297 62.2537H148.338C149.631 62.1683 149.64 60.1408 148.338 60.2217C144.97 60.4465 141.619 59.8891 138.26 60.1318C138.233 58.5404 138.116 56.9535 137.649 55.4205C137.384 54.5394 135.862 54.3686 135.7 55.4205C135.498 56.8157 135.392 58.2231 135.381 59.6328C130.352 59.5654 125.331 59.1383 120.301 59.3181C119.371 58.3246 119.079 56.5669 118.639 55.3396L118.451 54.8002C118.068 56.5589 117.52 58.2778 116.816 59.934L115.586 59.9385C108.589 59.97 101.448 60.1813 94.613 61.6378C94.1444 61.2352 93.8459 60.6697 93.7777 60.0554C93.2837 56.2882 92.5741 52.6198 91.3211 49.0324L91.1415 48.5244L91.0966 48.3896C90.1577 49.8857 89.0764 51.2874 87.8676 52.5749C87.1581 53.3391 86.4171 54.0719 85.6536 54.7822C84.9126 55.6048 84.1492 56.4185 83.4082 57.2457C83.6937 59.111 83.7465 61.0047 83.5653 62.8831C83.2662 65.9801 82.3888 68.9933 80.9786 71.7662L80.9337 72.0449C80.7181 73.3486 80.4172 74.6882 79.7032 75.6683C80.5924 76.6663 81.275 77.8575 81.6702 79.1747C82.025 80.3525 80.3993 81.3775 79.5595 80.411C78.9148 79.6688 78.1624 79.0278 77.3275 78.5094C77.2781 78.5768 77.1838 78.6128 77.076 78.5544C74.8036 77.2866 70.9414 77.6732 68.669 78.8645C65.8397 80.348 64.735 83.3825 65.0493 86.4619C65.3502 89.411 66.6391 92.85 69.1316 94.3605C70.2723 95.0528 71.1659 95.1113 72.3785 94.7786C72.7683 94.6424 73.1326 94.4418 73.4563 94.1852L73.6584 94.0233C74.4533 93.394 75.1988 92.9624 76.1374 92.9444C76.3616 92.8647 76.5995 92.8307 76.8371 92.8442C77.0746 92.8578 77.3071 92.9187 77.5209 93.0234C77.7346 93.128 77.9253 93.2744 78.0818 93.4538C78.2383 93.6333 78.3575 93.8422 78.4322 94.0683L78.4547 94.1357C78.6253 94.6527 78.9397 95.2956 78.8723 96.0823C78.7885 96.9194 78.4245 97.7036 77.8394 98.3076C77.7392 98.4169 77.6343 98.5219 77.5251 98.6223C87.423 109.353 88.694 126.081 83.6192 139.486C83.3992 140.075 83.1656 140.655 82.9186 141.231C82.0699 143.209 78.805 142.593 78.3918 140.637C78.0379 138.973 77.5865 137.331 77.0401 135.719L76.9053 135.332C76.6044 134.469 76.3215 133.602 76.0161 132.739L75.9892 132.64C75.9753 132.595 75.9619 132.55 75.9488 132.505L75.4368 133.629L73.874 137.018C73.1419 138.601 70.8201 137.738 70.7348 136.214V136.164C70.677 133.83 70.3177 131.514 69.666 129.273L69.4594 129.524C66.4146 133.301 62.8398 136.834 57.9357 137.706C56.7097 137.922 55.3175 136.636 56.1618 135.391C56.5125 134.875 56.8479 134.349 57.1678 133.813C56.9036 133.688 56.6444 133.553 56.3909 133.408C54.555 132.337 52.9591 130.898 51.7023 129.183C48.9853 125.595 48.0153 121.082 47.7773 116.667C47.5213 111.996 47.9345 107.074 49.2054 102.574C49.7578 100.623 50.5033 98.7526 51.3655 96.9409L51.1859 96.4554C48.4106 88.5564 46.9304 80.2599 46.8028 71.8875C46.6546 61.8895 48.3746 51.7297 52.0032 42.4061C55.7487 32.7902 61.3803 23.525 69.0417 16.5435L69.0462 16.539ZM64.3802 103.963C63.6931 102.879 61.9731 103.855 62.6108 104.952L62.6332 104.988C63.7245 106.71 64.2365 108.67 64.8652 110.589C65.2694 111.821 67.2229 111.295 66.8143 110.05L66.6795 109.632C66.0553 107.685 65.4849 105.703 64.3802 103.963ZM70.3711 83.2522L70.8246 83.0274C72.2662 82.3396 73.5327 81.872 75.2347 82.4744C77.5116 83.2791 79.9547 85.8371 78.4143 88.3186C78.1478 88.7496 77.7517 89.0849 77.2829 89.2764C76.814 89.4678 76.2966 89.5055 75.8051 89.384C74.0536 89.0199 73.6045 87.4419 72.7153 86.1472L72.5626 85.9225C72.0237 85.1447 71.3366 84.0568 70.4339 83.7512C70.2318 83.6792 70.1465 83.36 70.3711 83.2522ZM71.6555 30.5469L71.8037 30.4121C72.7827 29.5445 71.3456 28.1194 70.3666 28.9735C65.9116 32.9296 64.3622 39.1064 62.0494 44.3706C61.5329 45.5574 63.2754 46.5914 63.8008 45.3956C66.0014 40.3696 67.4699 34.3591 71.6555 30.5469ZM125.232 28.8162C124.069 28.2902 123.049 29.9895 124.172 30.5514L124.217 30.5694C128.151 32.3541 129.826 36.3911 131.429 40.1358C131.941 41.3361 133.684 40.3022 133.181 39.1154L132.889 38.441C131.214 34.5794 129.26 30.6459 125.236 28.8207L125.232 28.8162ZM131.407 26.3796C130.172 25.9481 129.642 27.9081 130.868 28.3352C134.205 29.504 136.495 32.0125 138.426 34.8806C139.149 35.9595 140.905 34.9435 140.173 33.8556C137.928 30.5245 135.269 27.7283 131.407 26.3796Z" fill="#2B283A"/>
<path fill-rule="evenodd" clip-rule="evenodd" d="M131.115 87.0418C133.163 88.2826 136.275 91.1777 134.079 94.2526C131.488 96.9679 127.765 93.857 125.932 92.4499C124.226 91.3575 122.317 94.1582 123.898 95.435C137.155 105.249 142.535 87.3655 132.152 85.5808C131.007 85.383 130.576 86.6597 131.115 87.0418ZM112.666 63.3731L113.174 63.2832L113.434 63.2382C114.957 62.9865 116.758 62.8201 117.808 64.0114C118.397 64.6858 118.599 65.9265 117.808 66.5694C116.416 67.6932 114.876 67.2572 113.205 67.3561C111.843 67.4332 110.493 67.6624 109.181 68.0394C106.271 68.8711 103.905 70.3861 101.421 72.0539C101.093 72.2697 100.761 71.8561 100.918 71.5504C102.351 68.7407 105.126 66.439 107.91 65.0319C109.397 64.2812 111.023 63.6608 112.666 63.3731ZM126.117 102.156C130.563 102.479 140.196 100.358 144.193 103.54C159.264 122.354 99.508 127.191 105.966 106.372C110.075 99.6472 119.528 102.349 126.117 102.156ZM125.353 113.516C124.257 113.426 122.924 114.298 122.6 114.968C122.277 115.642 122.403 117.063 122.412 117.306C124.335 117.498 126.271 117.531 128.2 117.404C127.697 115.75 127.679 113.763 125.353 113.516ZM134.227 116.294C133.922 114.24 132.449 113.75 131.263 114.06C130.042 114.374 129.332 115.777 129.404 117.027C129.408 117.108 129.359 117.184 129.328 117.252C130.982 117.056 132.62 116.736 134.227 116.294ZM120.597 113.889C119.906 112.833 118.249 112.325 117.189 112.509C115.46 112.877 115.253 115.071 115.253 115.521C116.847 116.132 118.545 116.537 120.166 116.856C120.49 116.923 120.817 116.977 121.145 117.036L121.163 116.766C121.208 116.195 121.235 114.851 120.597 113.889ZM140.187 113.714C138.413 110.971 134.595 112.931 134.91 115.934C135.251 115.827 135.588 115.714 135.925 115.597C137.317 115.112 138.844 114.536 140.187 113.714ZM126.211 104.251C123.822 104.035 121.859 104.107 120.305 104.399L120.256 104.916C120.085 106.723 119.861 108.494 120.808 109.223C121.576 109.807 124.132 109.753 125.843 109.326C126.269 109.223 126.817 105.478 126.211 104.251ZM129.902 104.035C129.521 105.815 129.341 107.973 130.109 108.616C130.917 109.29 133.536 109.2 134.218 108.751C134.816 108.355 134.802 106.539 134.577 104.498C133.253 104.188 130.949 104.035 129.907 104.035H129.902ZM119.246 104.417L118.464 104.421L118.024 104.43C116.859 104.428 115.696 104.54 114.553 104.763C112.285 109.663 120.57 110.508 119.29 104.597L119.246 104.417ZM135.633 104.534L135.619 104.813C135.548 106.188 135.592 108.004 136.356 108.49C137.479 109.209 139.589 109.074 140.73 105.739C140.353 104.75 136.342 104.606 135.633 104.534ZM113.65 75.3131C114.13 75.3131 114.588 75.4794 115.006 75.7806C115.455 76.1215 115.827 76.5535 116.097 77.0484C116.681 78.0689 117.054 79.4759 117.054 81.0359C117.054 82.5958 116.686 84.0029 116.097 85.0279C115.827 85.5227 115.455 85.9547 115.006 86.2956C114.615 86.5903 114.14 86.7525 113.65 86.7586C113.16 86.7525 112.685 86.5903 112.294 86.2956C111.843 85.9552 111.47 85.5232 111.198 85.0279C110.545 83.8003 110.218 82.426 110.246 81.0359C110.246 79.4804 110.614 78.0689 111.198 77.0484C111.47 76.5531 111.843 76.121 112.294 75.7806C112.685 75.4859 113.16 75.3192 113.65 75.3131ZM144.008 75.3131C144.484 75.3131 144.947 75.4794 145.365 75.7806C145.814 76.1216 146.185 76.5536 146.456 77.0484C147.04 78.0689 147.408 79.4759 147.408 81.0359C147.408 82.5958 147.044 84.0029 146.456 85.0279C146.184 85.5231 145.811 85.9551 145.36 86.2956C144.97 86.5894 144.497 86.7516 144.008 86.7586C143.519 86.7525 143.044 86.5903 142.652 86.2956C142.202 85.955 141.828 85.523 141.556 85.0279C140.904 83.8003 140.576 82.426 140.604 81.0359C140.604 79.4804 140.968 78.0689 141.556 77.0484C141.828 76.5532 142.202 76.1212 142.652 75.7806C143.044 75.4859 143.519 75.3192 144.008 75.3131ZM139.877 62.1143L140.263 62.1953L140.523 62.2492C144.713 63.1483 150.031 64.9285 151.993 68.9924C152.07 69.5859 151.989 69.7117 151.921 69.7926L151.899 69.8196C151.845 69.8915 151.805 69.9859 151.549 70.0669C150.662 69.8407 149.803 69.515 148.989 69.0958L148.225 68.7227C147.345 68.2727 146.434 67.8851 145.499 67.5629C143.484 66.9021 141.408 66.4428 139.302 66.1918C138.851 66.1481 138.42 65.9852 138.053 65.7197C137.705 65.4581 137.459 65.0829 137.357 64.6588C137.276 64.3945 137.252 64.1156 137.29 63.8415C137.327 63.5673 137.424 63.3047 137.573 63.0719C137.799 62.6893 138.144 62.3921 138.556 62.2267C138.976 62.0609 139.435 62.0218 139.877 62.1143Z" fill="#2B283A"/>
</svg>
