<svg width="373" height="677" viewBox="0 0 373 677" fill="none" xmlns="http://www.w3.org/2000/svg">
<circle cx="24" cy="134" r="6" fill="#FF8A00"/>
<circle cx="225.5" cy="83.5" r="12.5" stroke="black" stroke-width="6"/>
<circle cx="15.5" cy="315.5" r="12.5" stroke="#4FFFA0" stroke-width="6"/>
<circle cx="353" cy="202" r="6" fill="#5A69F2"/>
<rect x="111.156" y="658.66" width="21" height="21" rx="6" transform="rotate(-30.0142 111.156 658.66)" fill="#E52E71"/>
<rect x="335" y="13" width="15" height="15" rx="3" stroke="#4FFFA0" stroke-width="6"/>
<rect x="347.192" y="616.043" width="15" height="15" rx="3" transform="rotate(-36.1593 347.192 616.043)" stroke="#4FFFA0" stroke-width="6"/>
<rect x="301" y="481.6" width="27" height="7.8" rx="3.9" fill="#FF8A00"/>
<rect x="310" y="499" width="27" height="7.8" rx="3.9" transform="rotate(-89.8121 310 499)" fill="#FF8A00"/>
<rect x="93.0459" y="7.5965" width="27" height="7.8" rx="3.9" transform="rotate(41.8091 93.0459 7.5965)" fill="#FF8A00"/>
<rect x="88.1546" y="26.5657" width="27" height="7.8" rx="3.9" transform="rotate(-48.003 88.1546 26.5657)" fill="#FF8A00"/>
<rect x="11.029" y="578.911" width="29.2277" height="8.44357" rx="4.22179" transform="rotate(-22.8112 11.029 578.911)" fill="#6E7CCD"/>
<rect x="27.312" y="592.496" width="29.2277" height="8.44357" rx="4.22179" transform="rotate(-112.623 27.312 592.496)" fill="#6E7CCD"/>
</svg>
